<?xml version="1.0" encoding="UTF-8"?>
<svg id="_레이어_2" data-name="레이어 2" xmlns="http://www.w3.org/2000/svg" viewBox="0 0 710.19 532.19">
  <defs>
    <style>
      .cls-1 {
        stroke-width: 1.32px;
      }

      .cls-1, .cls-2 {
        fill: #fff100;
        stroke: #1d2088;
        stroke-miterlimit: 10;
      }

      .cls-2 {
        stroke-width: 1.07px;
      }
    </style>
  </defs>
  <g id="_레이어_1-2" data-name="레이어 1">
    <g>
      <g>
        <circle class="cls-2" cx="483.38" cy="486.84" r="10.44"/>
        <circle class="cls-2" cx="429.02" cy="510.62" r="10.44"/>
        <circle class="cls-2" cx="370.64" cy="521.21" r="10.44"/>
        <circle class="cls-2" cx="311.38" cy="518.06" r="10.44"/>
        <circle class="cls-2" cx="254.46" cy="501.33" r="10.44"/>
        <circle class="cls-2" cx="202.92" cy="471.92" r="10.44"/>
        <circle class="cls-2" cx="159.56" cy="431.42" r="10.44"/>
        <circle class="cls-2" cx="126.7" cy="382.01" r="10.44"/>
        <circle class="cls-2" cx="105.53" cy="208.49" r="10.44"/>
        <circle class="cls-2" cx="125.55" cy="152.63" r="10.44"/>
        <circle class="cls-2" cx="157.9" cy="102.89" r="10.44"/>
        <circle class="cls-2" cx="200.85" cy="61.96" r="10.44"/>
        <circle class="cls-2" cx="252.09" cy="32.03" r="10.44"/>
        <circle class="cls-2" cx="308.85" cy="14.73" r="10.44"/>
        <circle class="cls-2" cx="368.06" cy="10.98" r="10.44"/>
        <circle class="cls-2" cx="426.55" cy="20.99" r="10.44"/>
        <circle class="cls-2" cx="481.15" cy="44.21" r="10.44"/>
        <circle class="cls-2" cx="528.92" cy="79.41" r="10.44"/>
        <circle class="cls-2" cx="567.29" cy="124.67" r="10.44"/>
        <circle class="cls-2" cx="594.19" cy="177.56" r="10.44"/>
        <circle class="cls-2" cx="568.71" cy="405.52" r="10.44"/>
        <circle class="cls-2" cx="530.8" cy="451.17" r="10.44"/>
      </g>
      <g>
        <path class="cls-1" d="M113.45,288.25c-.26,0-.53-.02-.79-.06-2.8-.43-4.72-3.06-4.29-5.86.16-1.04.26-2.07.28-3.04.07-2.79,2.35-5.01,5.13-5.01.04,0,.08,0,.12,0,2.84.07,5.08,2.42,5.01,5.26-.03,1.42-.17,2.89-.4,4.37-.39,2.54-2.58,4.35-5.07,4.35Z"/>
        <path class="cls-1" d="M112.73,277.3c-2.1,0-4.07-1.3-4.83-3.39-.15-.43-.33-.83-.53-1.19-1.35-2.49-.43-5.61,2.07-6.96,2.49-1.35,5.61-.43,6.96,2.07.44.81.83,1.68,1.16,2.58.97,2.67-.41,5.61-3.08,6.58-.58.21-1.17.31-1.75.31Z"/>
        <path class="cls-1" d="M60.44,304.48c-1.15,0-2.31-.38-3.26-1.17-2.19-1.8-2.5-5.04-.7-7.23l1.32-1.6c.92-1.11,2.21-1.74,3.54-1.85-.15-1.33.22-2.71,1.14-3.83l4.24-5.15c.1-.12.2-.23.3-.33.33-.55.67-1.1,1.01-1.64.85-1.33,2.21-2.13,3.66-2.32-.22-1.45.17-2.98,1.21-4.17,1.63-1.86,3.4-3.61,5.25-5.21.13-.11.27-.22.4-.31.12-.12.25-.23.38-.34.59-.49,1.2-.97,1.81-1.43,1.27-.96,2.85-1.23,4.29-.89.31-1.45,1.24-2.75,2.66-3.49,2.96-1.53,5.45-2.43,7.01-2.91.18-.06.36-.1.54-.13.18-.07.36-.13.54-.18.26-.07.47-.12.61-.15.58-.16,1.17-.3,1.75-.41,1.86-.36,3.68.33,4.84,1.67,1.4-1.22,3.41-1.63,5.26-.9.93.37,1.83.83,2.67,1.36,1.92,1.23,3.54,2.85,4.81,4.83,1.53,2.39.84,5.56-1.54,7.1-2.39,1.53-5.56.84-7.1-1.54-.47-.74-1.03-1.3-1.7-1.73-.28-.18-.59-.34-.9-.46-.79-.31-1.46-.8-1.98-1.4-.66.58-1.48.99-2.4,1.17-.35.07-.71.15-1.06.25-.13.04-.21.06-.33.08-.05.01-.14.03-.28.07-.11.03-.23.06-.35.08-.11.04-.23.08-.35.12-1.16.36-3.03,1.03-5.3,2.21-1.14.59-2.4.71-3.56.43-.25,1.17-.91,2.26-1.94,3.03-.49.37-.97.75-1.44,1.14-.11.09-.22.17-.33.25-.1.1-.2.19-.3.28-1.49,1.28-2.91,2.68-4.21,4.18-.86.98-2,1.56-3.2,1.71.19,1.2-.05,2.46-.75,3.56-.32.51-.64,1.03-.95,1.55-.14.23-.29.45-.46.66l-.03.04c-.1.12-.2.24-.31.35-.09.13-.18.25-.28.37l-4.24,5.15c-.92,1.11-2.21,1.74-3.54,1.85.15,1.33-.22,2.71-1.14,3.83l-1.32,1.6c-1.02,1.23-2.49,1.87-3.97,1.87Z"/>
        <path class="cls-1" d="M57.49,308.06c-1.15,0-2.31-.38-3.26-1.17-2.19-1.8-2.5-5.04-.7-7.23l2.37-2.87c1.8-2.19,5.04-2.5,7.23-.7,2.19,1.8,2.5,5.04.7,7.23l-2.37,2.87c-1.02,1.23-2.49,1.87-3.97,1.87Z"/>
      </g>
      <g>
        <path class="cls-1" d="M105.94,285.56c-.95,0-1.91-.26-2.76-.81-2.39-1.53-3.09-4.71-1.56-7.09.74-1.16,1.54-2.31,2.37-3.4,1.72-2.26,4.94-2.69,7.2-.98,2.26,1.72,2.69,4.94.98,7.2-.66.87-1.3,1.78-1.89,2.71-.98,1.53-2.64,2.37-4.33,2.37Z"/>
        <path class="cls-1" d="M113.06,277.02c-1.39,0-2.77-.56-3.78-1.66-1.92-2.09-1.78-5.34.31-7.26.59-.54,1.19-1.06,1.79-1.56,2.19-1.8,5.43-1.48,7.23.71,1.8,2.19,1.48,5.43-.71,7.23-.45.37-.91.77-1.36,1.18-.99.91-2.23,1.35-3.47,1.35Z"/>
        <path class="cls-1" d="M140.48,281.7c-2.61,0-4.85-1.99-5.11-4.64-.05-.53-.13-1.04-.23-1.53-.2-.96-.11-1.91.2-2.76-.78-.27-1.52-.72-2.12-1.37-.31-.34-.66-.63-1.04-.87-.59-.37-1.22-.62-1.96-.76-.09-.02-.17-.04-.26-.06-.09,0-.18-.01-.27-.02-.41-.05-.84-.06-1.28-.04-1.05.04-2.04-.22-2.88-.73-.51.91-1.3,1.67-2.31,2.14-1.57.73-3.16,1.72-4.72,2.93-2.24,1.74-5.47,1.34-7.21-.9-1.74-2.24-1.34-5.47.9-7.21,2.17-1.69,4.42-3.08,6.69-4.14,1.61-.75,3.4-.6,4.82.25.84-1.5,2.41-2.54,4.25-2.62.99-.04,1.95-.01,2.89.09.22.02.44.06.65.12.22.01.44.04.66.08,2.01.38,3.88,1.12,5.56,2.2,1.11.71,2.13,1.56,3.03,2.54,1.35,1.45,1.69,3.48,1.07,5.23,1.67.57,3,1.98,3.38,3.84.17.84.3,1.71.39,2.6.27,2.82-1.79,5.33-4.62,5.61-.17.02-.34.02-.5.02Z"/>
        <path class="cls-1" d="M140.48,286.35c-.16,0-.31,0-.47-.02-2.83-.26-4.91-2.75-4.65-5.58.09-1.03.11-2.04.06-2.98-.15-2.83,2.02-5.25,4.85-5.41,2.83-.16,5.25,2.02,5.41,4.85.08,1.44.05,2.94-.09,4.46-.24,2.67-2.48,4.67-5.11,4.67Z"/>
      </g>
      <path class="cls-1" d="M238.45,320.61c-1.69,0-3.25-.84-4.19-2.18-1.34,1.45-3.45,2.06-5.44,1.38-.99-.34-1.95-.76-2.86-1.25-.21-.11-.4-.24-.59-.37-.14-.06-.28-.14-.41-.21l-.21-.13c-2.78-1.78-5.01-4.22-6.63-7.25-.95-1.79-.75-3.88.36-5.42-1.7-.72-2.94-2.34-3.11-4.3-.07-.83-.1-1.69-.1-2.54v-.18c0-.2.01-.41.04-.6-.01-.2-.02-.4,0-.6.12-2.74.58-5.56,1.37-8.38.5-1.77,1.86-3.06,3.5-3.54-.84-1.48-.94-3.34-.08-4.96.4-.75.82-1.5,1.26-2.23.1-.16.21-.32.32-.47.08-.16.17-.32.27-.47,0-.01.02-.03.03-.04h0c1.5-2.34,3.2-4.53,5.05-6.51,1.26-1.34,3.07-1.86,4.75-1.52-.06-1.73.75-3.44,2.29-4.47.74-.49,1.51-.96,2.27-1.39.17-.1.35-.18.53-.26.16-.11.34-.21.52-.3,2.77-1.43,5.59-2.39,8.39-2.87,2.01-.34,3.95.53,5.06,2.1,1.33-1.45,3.45-2.06,5.44-1.39.99.34,1.95.75,2.86,1.24.21.11.4.23.59.37.21.1.41.21.61.33l.04.02c2.77,1.77,5,4.21,6.62,7.23.96,1.78.75,3.88-.36,5.42,1.7.72,2.95,2.34,3.11,4.3.07.83.11,1.7.11,2.56v.17c0,.2-.01.4-.04.6.01.2.02.4,0,.6-.11,2.74-.57,5.57-1.36,8.38-.5,1.77-1.86,3.06-3.5,3.54.84,1.48.94,3.34.08,4.96-.4.75-.82,1.5-1.26,2.23-.1.16-.21.32-.32.47-.08.17-.18.34-.28.5l-.1-.06s0,0,0,0l.1.06c-1.51,2.36-3.22,4.56-5.08,6.54-1.26,1.34-3.07,1.86-4.75,1.52.06,1.73-.75,3.44-2.29,4.47-.74.49-1.51.96-2.27,1.39-.18.1-.35.18-.53.26-.16.11-.33.21-.51.3-2.77,1.43-5.59,2.39-8.39,2.87-.29.05-.58.07-.87.07ZM230.55,309.39c.1.04.19.09.28.14.41.22.85.41,1.3.57,1.07.36,1.94,1.05,2.54,1.9.74-.81,1.75-1.39,2.92-1.59,1.76-.3,3.58-.93,5.41-1.87.12-.06.25-.12.38-.18.11-.08.23-.15.36-.22.54-.3,1.08-.63,1.61-.98,1.18-.78,2.56-1.01,3.85-.76-.05-1.32.41-2.66,1.39-3.7,1.43-1.52,2.74-3.21,3.9-5.03l.02-.03c.08-.12.16-.24.25-.35.06-.13.14-.26.21-.39.34-.57.67-1.15.98-1.73.68-1.27,1.81-2.15,3.09-2.52-.66-1.15-.88-2.56-.49-3.94.58-2.06.91-4.09.99-6.04,0-.14.02-.28.03-.41-.01-.14-.01-.27-.01-.41v-.11c0-.58-.02-1.15-.07-1.71-.11-1.27.26-2.47.95-3.42-1.04-.44-1.95-1.23-2.52-2.3-.78-1.45-1.81-2.6-3.08-3.41l-.06-.04c-.08-.05-.16-.11-.24-.16-.1-.04-.19-.09-.28-.14-.41-.22-.85-.41-1.3-.56-1.07-.36-1.94-1.04-2.55-1.9-.74.81-1.75,1.39-2.92,1.59-1.76.3-3.58.93-5.41,1.88-.12.06-.25.12-.37.17-.11.08-.23.15-.36.22-.54.3-1.08.63-1.61.99-1.18.78-2.56,1.01-3.85.76.05,1.32-.41,2.66-1.39,3.7-1.42,1.52-2.73,3.21-3.89,5.02h0c-.08.13-.17.26-.26.37-.07.13-.14.26-.21.39-.34.56-.67,1.14-.98,1.72-.68,1.27-1.81,2.15-3.09,2.52.66,1.15.87,2.56.49,3.94-.58,2.06-.91,4.09-.99,6.04,0,.14-.02.28-.03.41.01.13.01.27.01.41v.13c0,.57.02,1.14.07,1.69.11,1.27-.26,2.47-.95,3.43,1.04.44,1.95,1.23,2.52,2.31.76,1.42,1.76,2.55,2.99,3.36h.03s.18.13.18.13c.06.04.12.08.18.12Z"/>
      <g>
        <path class="cls-1" d="M276.57,300.44c-1.04,0-2.09-.32-3-.97-2.3-1.66-2.82-4.87-1.15-7.17.66-.92,1.31-1.87,1.93-2.84,1.53-2.39,4.71-3.09,7.09-1.56,2.39,1.53,3.09,4.71,1.56,7.09-.72,1.13-1.48,2.24-2.26,3.32-1,1.39-2.57,2.13-4.17,2.13Z"/>
        <path class="cls-1" d="M270.38,307.77c-1.31,0-2.61-.5-3.61-1.49-2.02-2-2.03-5.25-.04-7.26.45-.45.89-.92,1.33-1.39,1.92-2.08,5.17-2.22,7.26-.29,2.09,1.92,2.22,5.17.29,7.26-.52.56-1.05,1.12-1.58,1.66-1,1.01-2.33,1.52-3.65,1.52Z"/>
        <path class="cls-1" d="M239.95,320.97h-.41c-2.84,0-5.13-2.31-5.13-5.15,0-2.83,2.3-5.13,5.14-5.13h.4c.55,0,1.12,0,1.68,0h.02c1.33,0,2.54.5,3.45,1.33.72-.89,1.74-1.55,2.94-1.81,1.77-.37,3.6-.97,5.44-1.78.12-.05.25-.1.38-.15.12-.07.24-.13.36-.19.55-.26,1.1-.53,1.65-.82,1.17-.62,2.47-.75,3.66-.45.22-1.22.88-2.36,1.94-3.16,1.59-1.21,3.16-2.57,4.65-4.03,2.03-1.98,5.28-1.95,7.26.08,1.98,2.03,1.95,5.28-.08,7.26-1.8,1.76-3.69,3.39-5.61,4.86-1.29.98-2.89,1.26-4.35.9-.27,1.49-1.2,2.84-2.63,3.61-.7.37-1.42.73-2.12,1.06-.16.08-.32.14-.49.2-.15.09-.31.17-.48.24-2.49,1.09-4.99,1.91-7.45,2.43-1.68.35-3.33-.15-4.51-1.22-.94,1.17-2.37,1.91-3.99,1.92-.58,0-1.16,0-1.73,0Z"/>
        <path class="cls-1" d="M238.6,320.97h-.01c-2.12,0-3.76-.02-3.76-.02-2.84-.03-5.12-2.35-5.09-5.18.03-2.82,2.32-5.09,5.14-5.09.02,0,.03,0,.05,0,0,0,1.61.01,3.69.02,2.84,0,5.13,2.31,5.12,5.15,0,2.83-2.31,5.12-5.14,5.12Z"/>
      </g>
      <g>
        <path class="cls-1" d="M332.37,312.3c-1.27,0-2.54-.47-3.53-1.4-2.06-1.95-2.15-5.2-.2-7.26.68-.72,1.33-1.51,1.93-2.34,1.65-2.3,4.86-2.83,7.17-1.18,2.3,1.65,2.83,4.86,1.18,7.17-.87,1.21-1.81,2.35-2.81,3.41-1.01,1.07-2.37,1.61-3.73,1.61Z"/>
        <path class="cls-1" d="M323.79,317.97c-2.2,0-4.23-1.42-4.91-3.63-.83-2.71.69-5.58,3.4-6.42.45-.14.93-.33,1.41-.56,2.56-1.22,5.63-.14,6.85,2.42,1.22,2.56.14,5.63-2.42,6.85-.94.45-1.89.82-2.83,1.11-.5.15-1.01.23-1.51.23Z"/>
        <path class="cls-1" d="M320.52,318.49c-2.7,0-5.21-.78-7.27-2.26-.21-.15-.41-.3-.61-.46-1.94-1.56-2.45-4.23-1.35-6.36-2.12-.72-3.6-2.78-3.48-5.13.05-.97.18-1.99.39-3.02.57-2.78,3.28-4.58,6.06-4.01,2.78.57,4.57,3.28,4.01,6.06-.11.53-.18,1.04-.2,1.5-.04.75-.24,1.46-.56,2.09.56.19,1.09.47,1.57.86.05.04.11.08.16.12.11.08.46.33,1.28.33.36,0,.76-.05,1.18-.14,2.77-.62,5.51,1.12,6.13,3.89.62,2.77-1.12,5.51-3.89,6.13-1.16.26-2.31.39-3.42.39Z"/>
        <path class="cls-1" d="M313.46,306.43c-.43,0-.86-.05-1.29-.16-2.75-.71-4.4-3.51-3.69-6.26.03-.1.05-.21.08-.31l.03-.1c.07-.26.21-.8.31-1.13.29-1.02.9-2.31,1.25-2.98l3.1,1.52-2.9-1.85c.6-.93,1.16-1.89,1.67-2.85,1.33-2.51,4.44-3.46,6.94-2.13,2.51,1.33,3.46,4.44,2.13,6.94-.6,1.12-1.25,2.24-1.93,3.33-.16.34-.32.7-.38.86-.08.28-.19.71-.25.91l-.09.35c-.6,2.32-2.68,3.85-4.97,3.85Z"/>
        <path class="cls-1" d="M319.77,291.96c-.47,0-.95-.07-1.43-.2-2.73-.79-4.3-3.63-3.51-6.36.19-.67.36-1.34.5-1.99.6-2.77,3.34-4.53,6.11-3.93,2.77.6,4.53,3.34,3.93,6.11-.19.88-.42,1.77-.67,2.66-.65,2.25-2.7,3.71-4.93,3.71Z"/>
        <path class="cls-1" d="M320.57,288.58c-.31,0-.62-.03-.94-.09-2.79-.51-4.64-3.19-4.12-5.98.27-1.49.41-2.93.41-4.28,0-.67-.03-1.32-.1-1.93-.14-1.26.2-2.47.86-3.44-1.04-.26-2.01-.85-2.74-1.74-.27-.33-.56-.62-.88-.87-.07-.06-.14-.11-.21-.17-.08-.04-.16-.09-.23-.14-1.12-.7-2.56-.98-4.2-.82-1.34.13-2.61-.27-3.6-1.02-.36,1.27-1.21,2.39-2.45,3.08-.56.31-1.13.66-1.7,1.03-.13.08-.25.16-.39.23-.11.1-.23.19-.35.28-1.73,1.23-3.41,2.73-4.98,4.44-1.08,1.17-2.59,1.73-4.07,1.65.49,1.44.34,3.09-.55,4.47-.3.45-.61.93-.93,1.41l-.41.62c-1.56,2.37-4.74,3.03-7.11,1.48-2.37-1.56-3.03-4.74-1.48-7.11l.41-.63c.31-.46.61-.92.89-1.36,1.04-1.6,2.82-2.43,4.6-2.33-.59-1.73-.24-3.71,1.08-5.15,2.05-2.23,4.26-4.19,6.56-5.83.17-.12.35-.23.52-.33.15-.13.32-.26.49-.37.79-.53,1.6-1.02,2.4-1.47,1.83-1.02,4.02-.79,5.59.4.56-1.97,2.28-3.49,4.45-3.7.63-.06,1.27-.09,1.89-.09h0c3.24,0,6.19.82,8.77,2.44.23.14.44.3.64.47.23.13.45.27.66.44.93.72,1.78,1.56,2.53,2.49,1.46,1.8,1.5,4.3.26,6.13,2.02.51,3.62,2.23,3.86,4.43.11.98.16,2.01.16,3.04,0,1.98-.2,4.04-.58,6.14-.46,2.48-2.62,4.21-5.05,4.21Z"/>
        <path class="cls-1" d="M282.19,291.7c-.79,0-1.59-.18-2.35-.57-2.52-1.3-3.51-4.4-2.22-6.92.45-.88,1.11-1.97,2.19-3.63,1.54-2.38,4.73-3.06,7.1-1.51,2.38,1.54,3.06,4.73,1.51,7.1-.31.48-1.26,1.94-1.67,2.74-.91,1.77-2.71,2.79-4.57,2.79Z"/>
      </g>
      <g>
        <path class="cls-1" d="M313.94,240.7c-.93,0-1.87-.25-2.71-.78-1.56-.97-2.42-2.65-2.42-4.36,0-.93.25-1.87.78-2.71l1.97-3.16c1.5-2.41,4.67-3.14,7.08-1.65,1.56.97,2.42,2.65,2.42,4.36,0,.93-.25,1.87-.78,2.71l-1.97,3.16c-.97,1.56-2.65,2.42-4.36,2.42Z"/>
        <path class="cls-1" d="M308.62,249.26c-.93,0-1.86-.25-2.71-.78-2.41-1.5-3.15-4.67-1.65-7.08l1.17-1.88c1.5-2.41,4.67-3.14,7.08-1.65,2.41,1.5,3.15,4.67,1.65,7.08l-1.17,1.88c-.97,1.56-2.65,2.42-4.37,2.42Z"/>
        <path class="cls-1" d="M279.77,295.59c-.93,0-1.86-.25-2.71-.78-2.41-1.5-3.15-4.67-1.65-7.08l1.17-1.88c.83-1.34,2.19-2.16,3.64-2.37-.45-1.39-.31-2.97.52-4.31l3.77-6.05c.09-.14.18-.28.28-.4.07-.15.15-.29.24-.43l1.17-1.88c.83-1.34,2.19-2.16,3.64-2.37-.45-1.39-.31-2.97.52-4.31l3.77-6.05c.09-.14.18-.28.28-.4.07-.15.15-.29.24-.43l1.17-1.88c.83-1.34,2.19-2.16,3.64-2.37-.45-1.39-.31-2.97.52-4.31l3.77-6.05c1.5-2.41,4.67-3.14,7.08-1.65,2.41,1.5,3.14,4.67,1.65,7.08l-3.77,6.05c-.83,1.34-2.19,2.16-3.64,2.37.45,1.39.31,2.97-.52,4.31l-1.17,1.88c-.09.14-.18.28-.28.4-.07.15-.15.29-.24.43l-3.77,6.05c-.83,1.34-2.19,2.16-3.64,2.37.45,1.39.31,2.97-.52,4.31l-1.17,1.88c-.09.14-.18.28-.28.4-.07.15-.15.29-.24.43l-3.77,6.05c-.83,1.34-2.19,2.16-3.64,2.37.45,1.39.31,2.97-.52,4.31l-1.17,1.88c-.97,1.56-2.65,2.42-4.37,2.42Z"/>
        <path class="cls-1" d="M277.28,299.59c-.93,0-1.87-.25-2.71-.78-1.56-.97-2.42-2.65-2.42-4.36,0-.93.25-1.87.78-2.71l1.97-3.16c1.5-2.41,4.67-3.14,7.08-1.65,1.56.97,2.42,2.65,2.42,4.36,0,.93-.25,1.87-.78,2.71l-1.97,3.16c-.97,1.56-2.65,2.42-4.36,2.42Z"/>
        <path class="cls-1" d="M283.4,289.75c-.93,0-1.87-.25-2.71-.78-2.41-1.5-3.14-4.67-1.65-7.08l1.17-1.88c1.5-2.41,4.67-3.14,7.08-1.65,2.41,1.5,3.14,4.67,1.65,7.08l-1.17,1.88c-.97,1.56-2.65,2.42-4.36,2.42Z"/>
        <path class="cls-1" d="M285.09,287.04c-.93,0-1.87-.25-2.71-.78-2.41-1.5-3.14-4.67-1.65-7.08l3.77-6.05c.83-1.34,2.19-2.16,3.64-2.37-.45-1.39-.31-2.97.52-4.31l1.17-1.88c.09-.14.18-.28.28-.41.07-.15.15-.29.24-.43l3.77-6.05c.83-1.34,2.19-2.16,3.64-2.37-.45-1.39-.31-2.97.52-4.31l1.17-1.88c.09-.14.18-.28.28-.4.07-.15.15-.29.24-.43l3.77-6.05c.83-1.34,2.19-2.16,3.64-2.37-.45-1.39-.31-2.97.52-4.31l1.17-1.88c1.5-2.41,4.67-3.14,7.08-1.64,2.41,1.5,3.14,4.67,1.64,7.08l-1.17,1.88c-.83,1.34-2.19,2.16-3.64,2.37.45,1.39.31,2.97-.52,4.31l-3.77,6.05c-.09.14-.18.28-.28.4-.07.15-.15.29-.24.43l-1.17,1.88c-.83,1.34-2.19,2.16-3.64,2.37.45,1.39.31,2.97-.52,4.31l-3.77,6.05c-.09.14-.18.28-.28.41-.07.15-.15.29-.24.43l-1.17,1.88c-.83,1.34-2.19,2.16-3.64,2.37.45,1.39.31,2.97-.52,4.31l-3.77,6.05c-.97,1.56-2.65,2.42-4.36,2.42Z"/>
      </g>
      <g>
        <path class="cls-1" d="M213.95,304.42c-.93,0-1.87-.25-2.71-.78-2.41-1.5-3.15-4.67-1.65-7.08l1.97-3.16c1.5-2.41,4.67-3.14,7.08-1.65,2.41,1.5,3.15,4.67,1.65,7.08l-1.97,3.16c-.97,1.56-2.65,2.42-4.37,2.42Z"/>
        <path class="cls-1" d="M221.08,292.98c-.93,0-1.87-.25-2.71-.78-2.41-1.5-3.14-4.67-1.65-7.08l1.45-2.33c1.5-2.41,4.67-3.14,7.08-1.65,2.41,1.5,3.14,4.67,1.65,7.08l-1.45,2.33c-.97,1.56-2.65,2.42-4.36,2.42Z"/>
        <path class="cls-1" d="M223.17,289.61c-.93,0-1.87-.25-2.71-.78-2.41-1.5-3.14-4.67-1.65-7.08l4.67-7.5c1.2-1.93,3.47-2.78,5.56-2.28-1.38-1.66-1.61-4.07-.41-6l1.45-2.33c1.5-2.41,4.67-3.15,7.07-1.65,2.41,1.5,3.15,4.67,1.65,7.07l-1.45,2.33c-1.2,1.93-3.47,2.78-5.56,2.28,1.38,1.66,1.61,4.07.41,6l-4.67,7.5c-.97,1.56-2.65,2.42-4.37,2.42Z"/>
        <path class="cls-1" d="M235.09,270.47c-.93,0-1.87-.25-2.71-.78-1.56-.97-2.42-2.65-2.42-4.37,0-.93.25-1.86.78-2.71l1.97-3.16c1.5-2.41,4.67-3.14,7.08-1.65,1.56.97,2.42,2.65,2.42,4.37,0,.93-.25,1.86-.78,2.71l-1.97,3.16c-.97,1.56-2.65,2.42-4.37,2.42Z"/>
        <path class="cls-1" d="M229.63,279.24c-.93,0-1.86-.25-2.71-.78-2.41-1.5-3.15-4.67-1.65-7.08l1.2-1.93c1.5-2.41,4.67-3.14,7.08-1.65,2.41,1.5,3.15,4.67,1.65,7.08l-1.2,1.93c-.97,1.56-2.65,2.42-4.37,2.42Z"/>
        <path class="cls-1" d="M190.18,342.6c-.93,0-1.86-.25-2.71-.78-2.41-1.5-3.15-4.67-1.65-7.08l1.2-1.93c.86-1.39,2.28-2.22,3.79-2.39-.51-1.43-.39-3.07.47-4.46l3.86-6.21c.09-.14.19-.28.29-.42.07-.15.16-.3.25-.44l1.2-1.93c.86-1.39,2.28-2.22,3.79-2.39-.51-1.43-.39-3.07.47-4.46l3.86-6.21c.09-.14.19-.28.29-.42.07-.15.16-.3.25-.44l1.2-1.93c.86-1.39,2.28-2.22,3.79-2.39-.51-1.43-.39-3.07.47-4.46l3.86-6.21c.09-.14.19-.28.29-.42.07-.15.16-.3.25-.44l1.2-1.93c.86-1.39,2.28-2.22,3.79-2.39-.51-1.43-.39-3.07.47-4.46l3.86-6.21c1.5-2.41,4.67-3.14,7.08-1.65,2.41,1.5,3.14,4.67,1.65,7.08l-3.86,6.21c-.86,1.39-2.28,2.22-3.79,2.39.51,1.43.39,3.07-.47,4.46l-1.2,1.93c-.09.14-.19.28-.29.42-.07.15-.16.3-.25.44l-3.86,6.21c-.86,1.39-2.28,2.22-3.79,2.39.51,1.43.39,3.07-.47,4.46l-1.2,1.93c-.09.14-.19.28-.29.42-.07.15-.16.3-.25.44l-3.86,6.21c-.86,1.39-2.28,2.22-3.79,2.39.51,1.43.39,3.07-.47,4.46l-1.2,1.93c-.09.14-.19.28-.29.41-.07.15-.16.3-.25.44l-3.86,6.21c-.86,1.39-2.28,2.22-3.79,2.39.51,1.43.39,3.07-.47,4.46l-1.2,1.93c-.97,1.56-2.65,2.42-4.37,2.42Z"/>
        <path class="cls-1" d="M187.68,346.61c-.93,0-1.87-.25-2.71-.78-2.41-1.5-3.15-4.67-1.65-7.08l1.97-3.16c1.5-2.41,4.67-3.14,7.08-1.65,2.41,1.5,3.15,4.67,1.65,7.08l-1.97,3.16c-.97,1.56-2.65,2.42-4.37,2.42Z"/>
      </g>
      <g>
        <path class="cls-1" d="M45.71,286.4c-.89,0-1.8-.23-2.62-.72-2.44-1.45-3.24-4.6-1.79-7.04.76-1.27,1.57-2.48,2.41-3.58,1.72-2.25,4.95-2.68,7.2-.96,2.25,1.72,2.68,4.95.96,7.2-.6.79-1.19,1.66-1.75,2.6-.96,1.61-2.67,2.51-4.42,2.51Z"/>
        <path class="cls-1" d="M54.01,277.68c-1.8,0-3.55-.95-4.49-2.64-1.38-2.48-.49-5.61,1.99-6.99.99-.55,2.01-1.01,3.03-1.35,2.69-.9,5.6.55,6.5,3.24.9,2.69-.55,5.6-3.24,6.5-.42.14-.85.34-1.3.58-.79.44-1.65.65-2.49.65Z"/>
        <path class="cls-1" d="M27.58,325c-.2,0-.39-.01-.58-.03-.21.02-.42.02-.64.02-3.22-.11-6.31-.76-9.21-1.93-1.95-.79-3.15-2.65-3.2-4.63-1.88.7-4.09.26-5.55-1.3-.67-.72-1.32-1.5-1.91-2.31-.13-.18-.25-.37-.36-.56-.14-.17-.27-.34-.39-.53-1.61-2.47-2.86-5.31-3.72-8.43-.52-1.91.11-3.85,1.46-5.11-1.62-.83-2.75-2.5-2.8-4.45-.01-.4-.02-.8-.02-1.21,0-.48,0-.97.02-1.45,0-.2.02-.39.05-.58-.01-.19-.01-.39,0-.59.14-2.7.5-5.49,1.06-8.32.37-1.83,1.67-3.25,3.31-3.83-1.12-1.33-1.53-3.2-.92-4.96.27-.8.56-1.61.87-2.4.07-.18.14-.35.23-.51.05-.18.11-.36.18-.54.99-2.49,2.13-4.99,3.4-7.42.85-1.64,2.46-2.62,4.18-2.75-.71-1.56-.63-3.44.39-4.98.46-.7.95-1.4,1.43-2.08.11-.15.23-.3.35-.44.09-.16.19-.32.31-.47,1.61-2.21,3.33-4.35,5.12-6.35,1.24-1.38,3.05-1.94,4.75-1.63-.3-1.71.27-3.52,1.67-4.75.64-.57,1.3-1.12,1.96-1.66.15-.12.3-.23.46-.34.13-.13.28-.26.43-.38,2.24-1.77,4.56-3.35,6.88-4.72,1.65-.97,3.62-.91,5.16-.02.31-1.78,1.54-3.34,3.36-3.98.86-.3,1.73-.58,2.59-.82.2-.05.4-.1.59-.13.19-.07.38-.13.58-.18,2.66-.65,5.29-.98,7.81-.98.4,0,.81,0,1.21.03,2.1.09,3.86,1.43,4.57,3.27,1.53-1.3,3.75-1.63,5.66-.67.68.35,1.35.73,1.99,1.14.21.14.43.28.64.42.19.13.37.27.53.42.19.11.38.24.57.39,2.59,2.03,4.67,4.59,6.2,7.6.95,1.89.64,4.08-.64,5.61,1.84.69,3.19,2.4,3.33,4.48.04.6.06,1.22.06,1.83,0,.35,0,.7-.02,1.06-.1,2.83-2.48,5.05-5.32,4.95-2.84-.1-5.05-2.48-4.95-5.32,0-.23.01-.46.01-.68,0-.39-.01-.79-.04-1.17-.09-1.37.37-2.64,1.18-3.62-1.17-.44-2.18-1.29-2.78-2.49-.84-1.67-1.98-3.07-3.38-4.16-.1-.08-.19-.16-.28-.24-.11-.06-.21-.13-.32-.2-.11-.08-.22-.15-.33-.22-.36-.23-.73-.44-1.11-.64-1.17-.6-2.02-1.58-2.46-2.72-.95.81-2.2,1.27-3.54,1.22-.26-.01-.52-.02-.78-.02-1.69,0-3.5.23-5.36.69-.15.04-.29.06-.44.09-.14.05-.28.1-.43.14-.64.18-1.29.38-1.94.61-1.47.52-3.02.32-4.27-.4-.25,1.44-1.1,2.76-2.46,3.56-1.92,1.13-3.85,2.45-5.72,3.93-.13.1-.26.2-.39.28-.11.11-.23.22-.36.32-.56.45-1.12.93-1.67,1.41-1.23,1.08-2.82,1.47-4.31,1.19.26,1.5-.14,3.09-1.23,4.32-1.56,1.75-3.07,3.61-4.48,5.55-.1.13-.2.26-.31.38-.08.14-.17.28-.27.42-.42.6-.85,1.22-1.26,1.83-.91,1.37-2.37,2.17-3.9,2.28.64,1.39.65,3.05-.11,4.51-1.11,2.13-2.11,4.31-2.97,6.47-.06.15-.13.3-.2.44-.04.16-.09.31-.15.47-.26.68-.51,1.38-.75,2.07-.53,1.54-1.71,2.67-3.13,3.18.97,1.15,1.42,2.72,1.1,4.31-.47,2.34-.76,4.64-.87,6.84,0,.16-.02.31-.05.47,0,.16.01.31,0,.47-.01.38-.02.77-.02,1.14,0,.32,0,.63.01.95.04,1.53-.6,2.92-1.64,3.89,1.24.63,2.22,1.77,2.62,3.22.57,2.09,1.38,3.94,2.4,5.51.07.11.14.23.2.34.08.1.17.2.24.31.35.48.72.93,1.11,1.34.9.96,1.36,2.17,1.39,3.39,1.16-.44,2.49-.45,3.73.05,1.77.72,3.68,1.12,5.68,1.18.14,0,.28.01.41.03.14-.01.27-.02.41-.02.62,0,1.25-.04,1.88-.11,1.46-.16,2.84.32,3.88,1.2.49-1.3,1.5-2.4,2.88-2.96,1.95-.79,3.95-1.83,5.92-3.1.13-.09.27-.16.41-.24.12-.1.25-.19.38-.28.58-.39,1.17-.81,1.74-1.23,1.29-.96,2.88-1.23,4.33-.86-.16-1.49.34-3.04,1.49-4.19,1.06-1.06,2.12-2.19,3.15-3.37l1.42-1.72c.1-.14.21-.27.32-.4.09-.15.18-.29.28-.43.46-.64.91-1.26,1.34-1.88.95-1.35,2.44-2.1,3.98-2.17-.58-1.37-.55-2.98.2-4.4,1.11-2.1,1.74-3.86,1.91-5.38.01-.11.03-.21.05-.32,0-.11,0-.21,0-.32,0-.08,0-.17,0-.25,0-.38-.03-.74-.09-1.1-.18-1.13.01-2.22.5-3.17-.93-.15-1.82-.56-2.57-1.23-.49-.44-1.03-.64-1.69-.64-.28,0-.58.04-.9.11-2.77.63-5.52-1.1-6.15-3.87-.63-2.77,1.1-5.52,3.87-6.15,1.06-.24,2.13-.37,3.18-.37,3.2,0,6.14,1.12,8.52,3.24,1.79,1.59,2.2,4.15,1.16,6.18,2.11.35,3.87,2.01,4.23,4.25.15.9.22,1.83.22,2.75,0,.21,0,.42-.01.62,0,.25-.04.49-.08.73,0,.24,0,.48-.03.73-.33,2.81-1.32,5.75-3.04,9-.88,1.67-2.56,2.65-4.32,2.73.66,1.58.52,3.45-.54,4.95-.46.65-.93,1.31-1.42,1.98-.11.15-.22.29-.34.42-.09.15-.19.31-.3.45l-.31.41-1.61,1.94c-1.2,1.38-2.45,2.71-3.7,3.95-1.33,1.32-3.19,1.76-4.88,1.34.18,1.74-.53,3.54-2.04,4.66-.7.52-1.42,1.03-2.13,1.51-.16.11-.33.21-.5.3-.15.12-.31.24-.47.34-2.51,1.61-5.07,2.95-7.62,3.98-1.84.74-3.85.35-5.26-.85-.66,1.76-2.27,3.09-4.26,3.3-.95.1-1.92.16-2.86.17-.02,0-.04,0-.06,0Z"/>
        <path class="cls-1" d="M75.2,262.59c-.38,0-.77-.04-1.16-.13-2.76-.64-4.49-3.4-3.85-6.16.23-.97.38-1.96.46-2.94.23-2.83,2.71-4.93,5.54-4.7,2.83.23,4.93,2.71,4.7,5.54-.12,1.47-.35,2.96-.69,4.42-.55,2.37-2.66,3.98-5,3.98Z"/>
      </g>
      <path class="cls-1" d="M161.55,321.49c-.45,0-.91-.02-1.35-.05-.26-.02-.51-.06-.75-.11-.25,0-.51-.02-.76-.06-2.41-.38-4.66-1.23-6.7-2.53-1.15-.73-2.21-1.61-3.15-2.59-1.67-1.74-1.87-4.35-.63-6.3-2.22-.31-4.06-2.06-4.38-4.4-.13-.98-.2-1.98-.2-2.99v-.21c0-.24.02-.47.06-.7-.02-.23-.02-.47,0-.7.23-3.29,1.13-6.51,2.67-9.57,1-1.97,3.09-3.03,5.17-2.79-.7-1.98-.14-4.27,1.57-5.69.8-.66,1.65-1.28,2.52-1.83.2-.13.41-.24.62-.33.18-.14.38-.26.59-.38,3.18-1.75,6.65-2.7,10.02-2.73.02,0,.03,0,.05,0,2.4,0,4.42,1.65,4.98,3.89,1.86-1.44,4.53-1.45,6.42.11.89.74,1.72,1.58,2.46,2.49.16.2.31.42.44.64.17.19.33.39.48.61,1.93,2.87,3.05,6.36,3.25,10.07.12,2.26-1.23,4.26-3.23,5.05,1.56,1.43,2.13,3.74,1.26,5.8-.4.93-.85,1.85-1.36,2.74-.11.2-.24.39-.38.57-.09.2-.2.39-.31.57-.01.02-.02.04-.03.05-1.82,2.85-4.1,5.26-6.78,7.17-1.85,1.32-4.28,1.24-6.02-.04-.41,2.16-2.2,3.9-4.51,4.14-.68.07-1.36.11-2.03.11ZM163.05,311.13c1.12,0,2.18.37,3.03,1,.24-1.25.94-2.42,2.06-3.22,1.59-1.13,2.96-2.58,4.07-4.31.01-.02.03-.04.04-.06.07-.12.15-.23.23-.34.06-.12.12-.25.19-.37.31-.55.59-1.11.83-1.68.56-1.31,1.6-2.28,2.83-2.77-.96-.88-1.59-2.11-1.66-3.51-.1-1.87-.63-3.57-1.53-4.91-.06-.09-.12-.18-.17-.28-.07-.08-.14-.16-.21-.25-.3-.38-.64-.72-1-1.02-.88-.73-1.45-1.68-1.71-2.71-.86.66-1.93,1.06-3.09,1.07-1.68.02-3.47.52-5.17,1.45-.12.06-.24.12-.36.18-.11.08-.21.15-.33.22-.51.32-1,.68-1.47,1.07-1.12.92-2.51,1.29-3.85,1.14.46,1.28.41,2.73-.25,4.04-.91,1.81-1.46,3.76-1.6,5.66,0,.13-.02.26-.04.39,0,.13.01.26.01.39v.12c0,.55.04,1.09.11,1.61.17,1.25-.13,2.45-.75,3.44,1.1.15,2.16.66,2.99,1.53.38.4.81.75,1.28,1.05.83.53,1.75.88,2.75,1.03.11.02.22.04.33.06.11,0,.23,0,.34.01.5.04,1.03.03,1.56-.03.18-.02.36-.03.54-.03ZM180.77,310.01l.12.08s0,0,0,0c0,0,0,0,0,0l-.12-.08s0,0,0,0Z"/>
      <g>
        <path class="cls-1" d="M201.98,317.69c-1.78,0-3.5-.92-4.45-2.57-1.42-2.46-.58-5.6,1.88-7.02.8-.46,1.58-1.01,2.33-1.63,2.18-1.82,5.42-1.52,7.23.66,1.82,2.18,1.52,5.42-.66,7.23-1.19.99-2.46,1.88-3.77,2.64-.81.47-1.69.69-2.56.69Z"/>
        <path class="cls-1" d="M194.05,320.11c-2.74,0-5.02-2.17-5.13-4.94-.11-2.83,2.1-5.22,4.93-5.33.39-.02.79-.06,1.2-.12,2.8-.46,5.44,1.44,5.9,4.24.46,2.8-1.44,5.44-4.24,5.9-.82.13-1.64.22-2.45.25-.07,0-.14,0-.2,0Z"/>
        <path class="cls-1" d="M193.24,320.12s-.07,0-.1,0c-2.88-.05-5.58-.75-8.02-2.07-1.52-.82-2.46-2.3-2.65-3.89-1.58-.15-3.07-1.03-3.95-2.5-.42-.71-.81-1.47-1.14-2.25-.07-.17-.14-.35-.19-.52-.08-.16-.15-.33-.21-.51-.83-2.32-1.25-4.83-1.25-7.46v-.13c.02-1.51.68-2.87,1.73-3.79-.7-1.21-.9-2.7-.45-4.13.22-.7.48-1.41.76-2.1,1.07-2.63,4.07-3.89,6.69-2.82,2.63,1.07,3.89,4.07,2.82,6.69-.18.44-.35.9-.49,1.35-.29.91-.82,1.69-1.49,2.28.45.77.7,1.67.69,2.62v.03c0,1.45.22,2.79.65,3.99.03.08.06.17.08.25.04.08.07.16.11.24.15.36.32.7.51,1.02.37.63.6,1.31.68,1.99.67.06,1.34.26,1.97.6.98.53,2.1.81,3.33.84,2.84.05,5.09,2.4,5.04,5.23-.05,2.8-2.34,5.04-5.13,5.04Z"/>
        <path class="cls-1" d="M182.85,297.08c-.7,0-1.41-.14-2.09-.45-2.59-1.16-3.75-4.19-2.6-6.78.6-1.35,1.32-2.68,2.13-3.95,1.53-2.39,4.71-3.09,7.09-1.56,2.39,1.53,3.09,4.71,1.56,7.09-.54.84-1.01,1.71-1.41,2.6-.85,1.91-2.73,3.04-4.69,3.04Z"/>
      </g>
      <g>
        <path class="cls-1" d="M159.25,270.93c-2.37,0-4.5-1.65-5.02-4.07-.59-2.77,1.18-5.5,3.95-6.09,1.53-.33,3.12-.5,4.72-.52.02,0,.03,0,.05,0,2.81,0,5.11,2.27,5.14,5.09.03,2.84-2.25,5.16-5.09,5.19-.91,0-1.81.11-2.67.29-.36.08-.72.11-1.08.11Z"/>
        <path class="cls-1" d="M171.48,272.33c-.7,0-1.4-.14-2.08-.44-.45-.2-.91-.38-1.37-.54-2.69-.91-4.12-3.83-3.21-6.52.91-2.69,3.83-4.12,6.52-3.21.75.25,1.49.55,2.22.87,2.59,1.15,3.76,4.19,2.61,6.78-.85,1.91-2.73,3.05-4.7,3.05Z"/>
        <path class="cls-1" d="M182.94,298.57c-.71,0-1.43-.15-2.12-.46-2.58-1.17-3.72-4.22-2.55-6.8.18-.4.34-.81.47-1.23.29-.9.79-1.66,1.45-2.25-.52-.73-.85-1.6-.92-2.55-.12-1.5-.49-3-1.09-4.46-.04-.1-.08-.2-.12-.3-.05-.09-.1-.19-.14-.29-.2-.44-.43-.88-.68-1.3-.51-.88-.73-1.86-.69-2.81-.95-.15-1.86-.57-2.62-1.26-.1-.09-.21-.18-.31-.28-1.12-.96-2.34-1.78-3.63-2.41-2.54-1.25-3.59-4.33-2.33-6.88,1.25-2.54,4.33-3.59,6.88-2.33,2.07,1.02,4.02,2.32,5.79,3.85.17.14.34.29.5.44,1.18,1.07,1.75,2.56,1.68,4.04,1.47.24,2.82,1.11,3.62,2.5.4.69.77,1.4,1.1,2.12.08.16.14.33.2.5.08.15.16.32.23.48,1.01,2.45,1.63,4.99,1.84,7.57.13,1.65-.53,3.19-1.67,4.22.9,1.27,1.21,2.93.7,4.52-.26.8-.56,1.6-.91,2.36-.86,1.89-2.73,3.01-4.68,3.01Z"/>
        <path class="cls-1" d="M180.48,302.41c-1.19,0-2.38-.41-3.35-1.25-2.15-1.85-2.39-5.1-.53-7.24.55-.64,1.03-1.34,1.42-2.09,1.31-2.52,4.41-3.49,6.93-2.18,2.52,1.31,3.49,4.41,2.18,6.93-.76,1.45-1.68,2.82-2.75,4.06-1.02,1.18-2.45,1.78-3.89,1.78Z"/>
      </g>
      <path class="cls-1" d="M96.55,322.34c-.82,0-1.63-.15-2.39-.44-1.35-.52-3.74-1.98-4.54-5.93-.42-2.06.46-4.09,2.08-5.23-1.31-1.16-1.99-2.97-1.64-4.81.15-.79.33-1.61.52-2.44.04-.18.09-.36.15-.53.03-.18.06-.36.11-.54.61-2.41,1.38-4.94,2.3-7.49.58-1.63,1.91-2.79,3.46-3.22-.8-1.4-.92-3.16-.18-4.73.35-.75.71-1.49,1.07-2.19.08-.16.17-.32.27-.47.07-.17.14-.33.23-.5,1.44-2.72,2.9-5.06,4.35-6.95,1.36-1.77,3.64-2.41,5.65-1.77.47-.98,1.26-1.83,2.31-2.36,2.53-1.28,5.62-.28,6.91,2.25.58,1.14.93,2.47,1.07,4.07.02.24.03.47.02.71.03.23.05.46.06.69,0,.12,0,.23,0,.35,0,2.26-.34,4.99-1.01,8.08-.37,1.72-1.57,3.05-3.08,3.67.96,1.31,1.28,3.05.72,4.7-.26.75-.53,1.52-.81,2.28-.06.17-.13.33-.21.49-.05.17-.1.33-.16.5,0,0,0,.02-.01.03-.96,2.5-2.01,4.9-3.12,7.16-.78,1.59-2.27,2.59-3.9,2.82.63,1.56.48,3.39-.56,4.87-.55.78-1.1,1.51-1.64,2.15-.14.17-.29.32-.44.47-.12.17-.26.34-.41.5-2.38,2.56-4.72,3.8-7.16,3.8ZM100.66,305.39c-.02.15-.05.31-.09.46-.15.62-.28,1.23-.39,1.81.36-.13.73-.23,1.11-.28-.53-1.31-.52-2.82.16-4.19.97-1.97,1.89-4.09,2.74-6.29.02-.05.04-.09.06-.14.05-.11.09-.22.15-.32.04-.15.09-.3.15-.45.25-.67.49-1.35.72-2.02.5-1.46,1.59-2.56,2.92-3.1-.53-.72-.87-1.58-.97-2.49-.05.09-.09.17-.14.26-.07.14-.15.27-.24.4-.06.14-.12.29-.2.43-.31.61-.62,1.25-.93,1.9-.66,1.41-1.88,2.37-3.27,2.76.72,1.26.9,2.81.37,4.27-.8,2.25-1.48,4.45-2.01,6.55-.04.15-.08.3-.13.44Z"/>
      <g>
        <path class="cls-1" d="M686.2,291.64c-1.18,0-2.36-.4-3.32-1.22-2.16-1.84-2.42-5.08-.59-7.24,1-1.18,1.94-2.45,2.79-3.78,1.53-2.39,4.71-3.09,7.09-1.56,2.39,1.53,3.09,4.71,1.56,7.09-1.1,1.72-2.32,3.36-3.62,4.89-1.02,1.2-2.46,1.81-3.92,1.81Z"/>
        <path class="cls-1" d="M673.26,301.26c-2.03,0-3.95-1.21-4.76-3.2-1.07-2.63.2-5.62,2.83-6.69,1.67-.68,3.33-1.58,4.93-2.69,2.33-1.61,5.53-1.03,7.15,1.31,1.61,2.33,1.03,5.53-1.31,7.15-2.21,1.53-4.53,2.79-6.9,3.75-.63.26-1.29.38-1.93.38Z"/>
        <path class="cls-1" d="M664.3,303.11c-.63,0-1.26-.02-1.88-.07-2.58-.2-4.57-2.26-4.74-4.77-1.74,1.85-4.62,2.17-6.74.64-2.35-1.69-4.34-3.83-5.91-6.36-.11-.17-.2-.34-.28-.52-.11-.16-.22-.32-.32-.5-1.87-3.35-2.99-7.19-3.33-11.4-.2-2.42,1.32-4.59,3.54-5.3-2.05-1.04-3.22-3.38-2.68-5.73.56-2.46,1.37-4.91,2.41-7.29,1.13-2.6,4.15-3.8,6.76-2.67,2.6,1.13,3.8,4.15,2.67,6.76-.78,1.8-1.4,3.66-1.82,5.5-.42,1.83-1.77,3.2-3.43,3.74,1.54.78,2.64,2.32,2.79,4.17.22,2.73.91,5.17,2.06,7.22.06.1.11.2.16.3.07.09.13.18.19.28.86,1.39,1.94,2.55,3.2,3.46,1.29.93,2.02,2.35,2.12,3.82,1.03-1.09,2.52-1.72,4.12-1.6,2.34.18,4.86-.22,7.42-1.16,2.66-.98,5.61.39,6.59,3.05s-.39,5.61-3.05,6.59c-3.3,1.21-6.62,1.83-9.87,1.83Z"/>
        <path class="cls-1" d="M649.46,268.14c-.72,0-1.46-.15-2.16-.48-2.57-1.19-3.69-4.25-2.5-6.82.84-1.82,1.83-3.62,2.93-5.34,1.53-2.39,4.71-3.09,7.09-1.56,2.39,1.53,3.09,4.71,1.56,7.09-.85,1.33-1.61,2.71-2.26,4.12-.87,1.88-2.72,2.98-4.66,2.98Z"/>
      </g>
      <g>
        <path class="cls-1" d="M363.61,324.13c-.93,0-1.87-.25-2.71-.78-2.41-1.5-3.15-4.67-1.65-7.08l2.36-3.79.35-.62c1.4-2.47,4.53-3.34,7-1.94,2.47,1.4,3.34,4.53,1.94,7l-.4.71c-.04.06-.07.12-.11.18l-2.42,3.88c-.97,1.56-2.65,2.42-4.37,2.42Z"/>
        <path class="cls-1" d="M372.31,309.15c-.86,0-1.73-.21-2.53-.67-2.47-1.4-3.34-4.53-1.94-7l4.16-7.35c1.4-2.47,4.53-3.34,7-1.94,2.47,1.4,3.34,4.53,1.94,7l-4.16,7.35c-.95,1.67-2.68,2.61-4.47,2.61Z"/>
        <path class="cls-1" d="M377.05,300.78c-.86,0-1.73-.22-2.53-.67-2.47-1.4-3.34-4.53-1.94-7l6.03-10.64c1.4-2.47,4.53-3.34,7-1.94,2.47,1.4,3.34,4.53,1.94,7l-6.03,10.64c-.95,1.67-2.68,2.61-4.47,2.61ZM388.96,279.75c-.86,0-1.73-.22-2.53-.67-2.47-1.4-3.34-4.53-1.94-7l4.16-7.35c.1-.17.2-.34.32-.49.08-.18.16-.35.26-.52l6.03-10.64c1.4-2.47,4.53-3.34,7-1.94,2.47,1.4,3.34,4.53,1.94,7l-6.03,10.64c-.1.17-.2.34-.32.49-.08.18-.16.35-.26.52l-4.16,7.35c-.95,1.67-2.68,2.61-4.47,2.61ZM405.6,250.36c-.86,0-1.73-.22-2.53-.67-2.47-1.4-3.34-4.53-1.94-7l4.16-7.35c1.4-2.47,4.53-3.34,7-1.94,2.47,1.4,3.34,4.53,1.94,7l-4.16,7.35c-.95,1.67-2.68,2.61-4.47,2.61Z"/>
        <path class="cls-1" d="M410.37,242.02c-.85,0-1.7-.21-2.49-.65,0,0-.02,0-.02-.01-.01,0-.03-.02-.04-.02-2.47-1.4-3.34-4.53-1.94-7l2.66-4.69c1.39-2.46,4.52-3.33,6.98-1.95,2.47,1.39,3.35,4.5,1.97,6.98l-2.62,4.71c-.94,1.69-2.69,2.64-4.49,2.64Z"/>
        <path class="cls-1" d="M403.9,253.63c-.85,0-1.7-.21-2.49-.65-2.48-1.38-3.37-4.51-1.99-6.99l2.68-4.81c1.38-2.48,4.51-3.37,6.99-1.99,2.48,1.38,3.37,4.51,1.99,6.99l-2.68,4.81c-.94,1.69-2.69,2.64-4.49,2.64Z"/>
        <path class="cls-1" d="M393.19,272.87c-.85,0-1.7-.21-2.49-.65-2.48-1.38-3.37-4.51-1.99-6.99l2.68-4.81c.76-1.36,2.04-2.24,3.45-2.53-.5-1.35-.42-2.91.33-4.27l3.88-6.97c1.38-2.48,4.51-3.37,6.99-1.99,2.48,1.38,3.37,4.51,1.99,6.99l-3.88,6.97c-.76,1.36-2.04,2.24-3.45,2.53.5,1.35.42,2.91-.33,4.27l-2.68,4.81c-.94,1.69-2.69,2.64-4.49,2.64Z"/>
        <path class="cls-1" d="M392.9,280.3c-1.73,0-3.34-.88-4.29-2.31-.35-.11-.69-.27-1.02-.46-2.4-1.42-3.24-4.49-1.88-6.92l2.62-4.71c1.38-2.48,4.51-3.37,6.99-1.99,2.41,1.34,3.32,4.35,2.09,6.79.07,1.19.22,2.24.46,3.19.7,2.75-.95,5.55-3.7,6.25-.43.11-.86.16-1.28.16Z"/>
        <path class="cls-1" d="M402.95,292.19c-.95,0-1.91-.26-2.77-.82-2.51-1.61-4.42-3.07-6.02-4.57-2.06-1.95-2.16-5.2-.21-7.26,1.95-2.06,5.2-2.16,7.26-.21,1.12,1.06,2.56,2.14,4.53,3.41,2.39,1.53,3.08,4.71,1.54,7.1-.98,1.53-2.64,2.36-4.32,2.36Z"/>
        <path class="cls-1" d="M412.74,295.76c-.22,0-.43-.01-.66-.04-3.93-.5-7.62-1.77-10.99-3.77-2.44-1.45-3.24-4.6-1.78-7.04,1.45-2.44,4.6-3.24,7.04-1.78,2.14,1.28,4.51,2.09,7.03,2.41,1.71.22,3.11,1.25,3.87,2.65.6-1.5,1.89-2.69,3.58-3.1,1.74-.41,3.46-1.04,5.11-1.87.11-.06.23-.11.35-.16.11-.07.22-.13.33-.19,2.33-1.25,4.49-2.87,6.41-4.81,1.27-1.29,3.06-1.77,4.72-1.42-.81-1.49-.87-3.34,0-4.94.91-1.65,1.64-3.38,2.2-5.14.04-.12.08-.25.13-.36.03-.12.06-.25.09-.37.66-2.35,1-4.74,1-7.11,0-.27,0-.54-.01-.81-.06-1.76.78-3.35,2.1-4.31-1.58-.38-2.95-1.51-3.58-3.14-.64-1.66-1.49-3.21-2.51-4.59-.07-.1-.14-.19-.2-.29-.08-.09-.16-.18-.23-.27-1.23-1.54-2.7-2.86-4.36-3.92-.44-.28-.9-.55-1.37-.79-1.49-.78-2.44-2.19-2.69-3.74-1.04,1.18-2.61,1.88-4.29,1.73-1.72-.14-3.51-.06-5.28.25-2.8.49-5.46-1.38-5.94-4.18-.49-2.79,1.38-5.46,4.18-5.94,2.64-.46,5.32-.59,7.91-.37,2.4.2,4.28,2.03,4.64,4.3,1.53-1.74,4.1-2.28,6.24-1.16.73.38,1.45.8,2.14,1.24,2.6,1.66,4.9,3.73,6.84,6.15.12.15.22.3.32.45.12.13.24.28.35.43,1.57,2.12,2.86,4.47,3.83,6.99.86,2.21.08,4.66-1.75,6,2.19.53,3.84,2.46,3.92,4.82.01.38.02.76.02,1.15,0,3.31-.47,6.64-1.39,9.9-.05.17-.11.34-.17.5-.03.17-.08.34-.13.51-.76,2.41-1.76,4.77-3,7.02-1.12,2.03-3.4,3.01-5.56,2.56,1.06,1.94.78,4.41-.85,6.07-2.64,2.68-5.63,4.92-8.87,6.66-.16.09-.32.16-.48.23-.15.09-.3.18-.47.26-2.35,1.17-4.81,2.06-7.3,2.66-2.31.55-4.63-.56-5.71-2.55-.77,1.93-2.65,3.23-4.77,3.23Z"/>
        <path class="cls-1" d="M411.8,240.7c-2.01,0-3.92-1.19-4.74-3.16-1.09-2.62.14-5.63,2.76-6.72,1.97-.82,4.01-1.46,6.07-1.89,2.78-.59,5.5,1.19,6.08,3.97.58,2.78-1.19,5.5-3.97,6.08-1.42.3-2.84.74-4.22,1.32-.65.27-1.32.4-1.98.4Z"/>
      </g>
      <g>
        <path class="cls-1" d="M678.19,305.46c-.93,0-1.87-.25-2.71-.78-2.41-1.5-3.14-4.67-1.65-7.08l3.05-4.91c1.5-2.41,4.67-3.14,7.08-1.65,2.41,1.5,3.14,4.67,1.65,7.08l-3.05,4.91c-.97,1.56-2.65,2.42-4.36,2.42Z"/>
        <path class="cls-1" d="M685.69,293.42c-.93,0-1.87-.25-2.71-.78-2.41-1.5-3.14-4.67-1.65-7.08l2.93-4.7c1.5-2.41,4.67-3.14,7.08-1.65,2.41,1.5,3.14,4.67,1.65,7.08l-2.93,4.7c-.97,1.56-2.65,2.42-4.36,2.42Z"/>
        <path class="cls-1" d="M689.02,288.07c-.93,0-1.87-.25-2.71-.78-2.41-1.5-3.14-4.67-1.65-7.08l4.54-7.3c.92-1.47,2.46-2.32,4.07-2.41-.63-1.49-.55-3.25.37-4.72l2.93-4.7c1.5-2.41,4.67-3.14,7.08-1.65,2.41,1.5,3.14,4.67,1.65,7.08l-2.93,4.7c-.92,1.47-2.46,2.32-4.07,2.41.63,1.49.55,3.25-.37,4.72l-4.54,7.3c-.97,1.56-2.65,2.42-4.36,2.42Z"/>
        <path class="cls-1" d="M701.34,268.29c-.93,0-1.87-.25-2.71-.78-1.56-.97-2.42-2.65-2.42-4.37,0-.93.25-1.86.78-2.71l3.05-4.91c1.5-2.41,4.67-3.14,7.08-1.65,1.56.97,2.42,2.65,2.42,4.37,0,.93-.25,1.86-.78,2.71l-3.05,4.91c-.97,1.56-2.65,2.42-4.36,2.42Z"/>
        <path class="cls-1" d="M691.52,284.05c-.93,0-1.87-.25-2.71-.78-2.41-1.5-3.14-4.67-1.65-7.08l3.9-6.26c1.5-2.41,4.67-3.15,7.08-1.65,2.41,1.5,3.14,4.67,1.65,7.08l-3.9,6.26c-.97,1.56-2.65,2.42-4.36,2.42Z"/>
        <path class="cls-1" d="M619.14,368.92c-.35,0-.71-.04-1.07-.11-2.64-.56-5.11-1.57-7.35-3-.45-.29-.9-.6-1.33-.92-.18-.13-.35-.28-.5-.43-.18-.12-.36-.25-.53-.4-3.58-3.04-6.18-7.25-7.52-12.18-.75-2.74.87-5.56,3.61-6.31,2.74-.75,5.56.87,6.31,3.61.8,2.92,2.27,5.35,4.26,7.04.09.08.18.16.26.24.1.06.2.13.29.2.23.17.46.33.7.49,1.2.76,2.52,1.31,3.95,1.61,2.77.59,4.55,3.32,3.96,6.09-.51,2.42-2.65,4.07-5.02,4.07ZM630.17,368.15c-2.17,0-4.18-1.38-4.89-3.55-.87-2.7.6-5.6,3.3-6.47,2.83-.92,5.7-2.52,8.29-4.63.11-.09.23-.18.35-.26.1-.1.21-.2.32-.3,1.58-1.36,3.05-2.91,4.38-4.61,1.75-2.23,4.98-2.63,7.21-.88,2.23,1.75,2.63,4.98.88,7.21-1.74,2.22-3.68,4.26-5.76,6.06-.15.13-.3.25-.46.35-.13.14-.28.27-.43.39-3.62,2.95-7.52,5.11-11.61,6.43-.53.17-1.06.25-1.58.25ZM652.13,347.31c-.93,0-1.87-.25-2.71-.78-2.41-1.5-3.14-4.67-1.65-7.08l6.05-9.72c.09-.15.19-.28.29-.42.07-.15.16-.3.25-.45l3.9-6.26c.19-.3.4-.58.64-.82-1.13-1.07-2.33-2.04-3.61-2.92-.12-.08-.24-.17-.35-.26-.13-.07-.25-.14-.38-.22,0,0,0,0-.01,0-1.75-1.12-3.63-2.06-5.59-2.78-2.66-.98-4.02-3.94-3.04-6.6.98-2.66,3.94-4.02,6.6-3.04,2.64.98,5.19,2.24,7.56,3.76.02.01.04.02.05.03.16.1.3.21.45.32.17.09.34.19.5.3,1.13.77,2.21,1.6,3.25,2.48l5.9-9.47c.09-.15.19-.28.29-.42.07-.15.16-.3.25-.45l3.9-6.26c1.5-2.41,4.67-3.14,7.08-1.65,2.41,1.5,3.14,4.67,1.65,7.08l-3.9,6.26c-.09.15-.19.29-.29.42-.07.15-.16.3-.25.45l-6.05,9.72c-.48.77-1.13,1.37-1.86,1.77,1.03,2.17.43,4.83-1.56,6.32-.68.51-1.45.83-2.24.96-.07.15-.16.3-.25.45l-3.9,6.26c-.09.15-.19.29-.29.42-.07.15-.16.3-.25.45l-6.05,9.72c-.97,1.56-2.65,2.42-4.36,2.42ZM605.2,344.57c-.23,0-.47-.02-.71-.05-2.81-.39-4.77-2.98-4.39-5.79.38-2.74,1.06-5.49,2.04-8.19.07-.18.14-.36.23-.53.05-.18.11-.37.18-.55,1.05-2.67,2.38-5.27,3.95-7.74.76-1.19,1.58-2.35,2.44-3.45,1.74-2.24,4.97-2.64,7.21-.89,2.24,1.74,2.64,4.97.89,7.21-.66.85-1.3,1.75-1.89,2.67-1.22,1.9-2.24,3.91-3.04,5.95-.05.14-.11.27-.18.4-.04.14-.08.28-.13.42-.73,2.02-1.24,4.08-1.52,6.1-.35,2.57-2.56,4.44-5.08,4.44ZM673.72,344.56c-2.39,0-4.53-1.68-5.03-4.11-.45-2.19-1.05-4.31-1.8-6.3-1-2.66.35-5.62,3.01-6.61,2.66-1,5.62.35,6.61,3.01.94,2.5,1.69,5.14,2.25,7.86.57,2.78-1.23,5.49-4.01,6.06-.35.07-.69.1-1.03.1ZM621.07,318.88c-1.63,0-3.24-.78-4.23-2.22-1.61-2.33-1.03-5.53,1.31-7.15,2.43-1.68,4.98-3.03,7.59-4.02.19-.07.38-.13.58-.18.18-.09.37-.16.56-.23,2.15-.73,4.33-1.2,6.47-1.42.25-.06.5-.1.75-.11,2.01-.16,4.02-.19,5.97-.09,2.83.14,5.02,2.55,4.88,5.38-.14,2.83-2.56,5.02-5.38,4.88-1.36-.07-2.75-.06-4.17.04-.23.05-.45.08-.68.1-1.48.12-3,.44-4.54.96-.13.04-.26.08-.4.12-.12.06-.25.11-.38.16-1.84.7-3.66,1.67-5.41,2.87-.89.61-1.91.91-2.91.91ZM684.94,294.63c-.93,0-1.87-.25-2.71-.78-2.41-1.5-3.14-4.67-1.65-7.08l6.05-9.72c1.5-2.41,4.67-3.15,7.08-1.65,2.41,1.5,3.14,4.67,1.65,7.08l-6.05,9.72c-.97,1.56-2.65,2.42-4.36,2.42Z"/>
        <path class="cls-1" d="M674.64,351.32c-2.67,0-4.92-2.06-5.12-4.77-.13-1.76-.34-3.5-.65-5.18-.51-2.79,1.34-5.46,4.13-5.97,2.79-.51,5.46,1.34,5.97,4.13.37,2.04.64,4.16.79,6.28.2,2.83-1.93,5.29-4.76,5.49-.12,0-.25.01-.37.01Z"/>
      </g>
      <g>
        <path class="cls-1" d="M597.97,272.14c-.93,0-1.87-.25-2.71-.78-2.41-1.5-3.14-4.67-1.65-7.08l2.85-4.58c1.5-2.41,4.67-3.14,7.08-1.65,2.41,1.5,3.14,4.67,1.65,7.08l-2.85,4.58c-.97,1.56-2.65,2.42-4.37,2.42Z"/>
        <path class="cls-1" d="M604.57,261.53c-.93,0-1.86-.25-2.71-.78-2.41-1.5-3.15-4.67-1.65-7.08l2.66-4.27c1.5-2.41,4.67-3.14,7.08-1.65,2.41,1.5,3.15,4.67,1.65,7.08l-2.66,4.27c-.97,1.56-2.65,2.42-4.37,2.42Z"/>
        <path class="cls-1" d="M607.59,256.68c-.93,0-1.87-.25-2.71-.78-2.41-1.5-3.14-4.67-1.65-7.08l3.85-6.18c.73-1.17,1.85-1.95,3.09-2.26-.26-1.25-.06-2.6.67-3.77l2.66-4.27c1.5-2.41,4.67-3.14,7.08-1.65,2.41,1.5,3.14,4.67,1.65,7.08l-2.66,4.27c-.73,1.17-1.85,1.95-3.09,2.26.26,1.25.06,2.6-.67,3.77l-3.85,6.18c-.97,1.56-2.65,2.42-4.37,2.42Z"/>
        <path class="cls-1" d="M618.22,239.61c-.93,0-1.87-.25-2.71-.78-1.56-.97-2.42-2.65-2.42-4.37,0-.93.25-1.86.78-2.71l2.85-4.58c1.5-2.41,4.67-3.14,7.08-1.65,1.56.97,2.42,2.65,2.42,4.37,0,.93-.25,1.86-.78,2.71l-2.85,4.58c-.97,1.56-2.65,2.42-4.37,2.42Z"/>
        <path class="cls-1" d="M608.32,255.52c-.93,0-1.87-.25-2.71-.78-2.41-1.5-3.14-4.67-1.65-7.08l4.1-6.59c1.5-2.41,4.67-3.14,7.08-1.65,2.41,1.5,3.14,4.67,1.65,7.08l-4.1,6.59c-.97,1.56-2.65,2.42-4.36,2.42Z"/>
        <path class="cls-1" d="M592.11,321.29c-2.2,0-4.24-1.43-4.91-3.64-.82-2.71.71-5.58,3.42-6.41,1.66-.5,3.24-1.43,4.7-2.75,2.1-1.91,5.35-1.75,7.26.35,1.91,2.1,1.75,5.35-.35,7.26-2.59,2.35-5.49,4.03-8.62,4.98-.5.15-1,.22-1.5.22ZM581.48,320.29c-.87,0-1.74-.22-2.55-.68-.07-.04-.14-.08-.22-.13-4.04-2.39-6.26-6.57-6.26-11.76,0-.99.08-2.04.23-3.12.03-.22.08-.44.14-.65.01-.22.04-.43.08-.65.49-2.53,1.4-5.37,2.69-8.41,1.11-2.61,4.13-3.82,6.74-2.71,2.61,1.11,3.82,4.13,2.71,6.74-1.01,2.38-1.71,4.51-2.06,6.34-.03.14-.06.27-.09.4,0,.13-.02.27-.04.41-.09.6-.13,1.16-.13,1.66,0,2.2.76,2.65,1.21,2.92l.1.06c2.46,1.41,3.31,4.55,1.9,7.01-.95,1.66-2.68,2.58-4.46,2.58ZM585.38,292.3c-.89,0-1.8-.23-2.62-.72-2.44-1.45-3.24-4.6-1.78-7.04.69-1.16,1.44-2.37,2.21-3.58.11-.17.23-.34.36-.5l3.44-5.53c.1-.15.2-.3.31-.44.08-.16.16-.32.26-.47l4.1-6.59c1.5-2.41,4.67-3.14,7.08-1.65,2.41,1.5,3.14,4.67,1.65,7.08l-4.1,6.59c-.1.15-.2.3-.31.44-.08.16-.16.32-.26.47l-3.76,6.04c-.13.21-.27.4-.43.59-.6.95-1.18,1.89-1.72,2.8-.96,1.61-2.67,2.51-4.42,2.51ZM601.81,265.97c-.93,0-1.87-.25-2.71-.78-2.41-1.5-3.14-4.67-1.65-7.08l5.94-9.54c1.5-2.41,4.67-3.14,7.08-1.65,2.41,1.5,3.14,4.67,1.65,7.08l-5.94,9.54c-.97,1.56-2.65,2.42-4.36,2.42Z"/>
        <path class="cls-1" d="M599.56,316.67c-1.31,0-2.62-.5-3.62-1.49-2.01-2-2.03-5.25-.03-7.26.94-.95,1.82-2.07,2.6-3.33,1.5-2.41,4.66-3.15,7.07-1.65,2.41,1.5,3.15,4.66,1.65,7.07-1.19,1.92-2.55,3.65-4.03,5.15-1,1.01-2.33,1.52-3.65,1.52Z"/>
      </g>
      <path class="cls-1" d="M467.64,320.07c-2.03,0-3.95-1.21-4.76-3.21-1.07-2.63.2-5.62,2.83-6.69,2.66-1.08,5.07-3.15,6.78-5.82v-.02c.1-.13.19-.26.28-.38.06-.13.13-.27.2-.4,1.06-1.88,1.73-3.95,1.93-5.97.27-2.82,2.78-4.89,5.61-4.62,2.82.27,4.89,2.79,4.62,5.61-.33,3.44-1.44,6.9-3.21,10.03-.12.21-.25.41-.4.6-.1.21-.21.42-.34.62l-.14-.09s0,0,0,0l.14.09s-.02.03-.02.04c-2.85,4.46-6.96,7.94-11.58,9.82-.63.26-1.29.38-1.93.38ZM456.04,319.9c-.79,0-1.58-.18-2.33-.56-.5-.25-.99-.53-1.46-.84-2.86-1.83-5.13-4.48-6.57-7.68-.11-.25-.2-.5-.27-.75-.12-.23-.23-.47-.32-.72-.8-2.24-1.2-4.63-1.2-7.13,0-2.81.51-5.62,1.51-8.36.97-2.67,3.92-4.04,6.58-3.07,2.67.97,4.04,3.92,3.07,6.58-.59,1.61-.88,3.24-.88,4.84,0,1.32.2,2.56.6,3.69.04.12.08.24.11.36.06.11.11.22.17.33.63,1.39,1.55,2.49,2.75,3.25.19.12.39.24.59.34,2.53,1.29,3.53,4.38,2.24,6.91-.91,1.78-2.71,2.8-4.58,2.8ZM476.91,291.98c-1.48,0-2.94-.63-3.96-1.86-.47-.56-1.01-1.05-1.63-1.44-1.17-.75-2.53-1.13-4.02-1.13-.28,0-.56.01-.85.04-.13.01-.26.02-.38.02-.12.03-.25.06-.37.08-1.85.32-3.71,1.17-5.39,2.46-2.25,1.73-5.48,1.3-7.2-.95-1.73-2.25-1.3-5.48.95-7.2,2.99-2.29,6.41-3.82,9.89-4.43.26-.05.52-.07.78-.08.25-.06.51-.11.77-.13,4.07-.38,8.06.55,11.36,2.66,1.5.96,2.85,2.15,3.99,3.53,1.81,2.18,1.51,5.42-.67,7.23-.96.8-2.12,1.18-3.28,1.18Z"/>
      <g>
        <path class="cls-1" d="M495.03,320.03c-2.37,0-4.51-1.65-5.02-4.07-.57-2.69,1.08-5.34,3.71-6.03.66-2.08,2.6-3.58,4.9-3.58,2.84,0,5.14,2.3,5.14,5.14,0,4.2-2.93,7.44-7.65,8.44-.36.08-.72.11-1.07.11Z"/>
        <path class="cls-1" d="M488.16,319.5c-.52,0-1.05-.08-1.58-.25-1.61-.52-3.11-1.22-4.45-2.08-.53-.34-1.05-.71-1.54-1.11-2.2-1.79-2.54-5.02-.76-7.22,1.79-2.2,5.02-2.54,7.22-.76.2.16.4.31.61.44.59.38,1.31.71,2.06.95,2.7.87,4.18,3.76,3.32,6.46-.7,2.18-2.72,3.56-4.89,3.56Z"/>
        <path class="cls-1" d="M483.3,316.76c-1.24,0-2.47-.44-3.46-1.34-2.38-2.17-4.16-5.06-5.13-8.35-.49-1.64-.12-3.33.85-4.59-1.14-1.06-1.79-2.61-1.63-4.28.2-1.98.63-3.97,1.28-5.93.9-2.69,3.81-4.15,6.5-3.25,2.69.9,4.15,3.81,3.25,6.5-.41,1.23-.68,2.47-.8,3.69-.1.99-.47,1.89-1.04,2.62.66.61,1.17,1.39,1.44,2.31.45,1.52,1.2,2.76,2.21,3.69,2.1,1.91,2.25,5.16.33,7.26-1.01,1.11-2.4,1.68-3.8,1.68Z"/>
        <path class="cls-1" d="M480.31,298.39c-.59,0-1.18-.1-1.76-.31-2.66-.97-4.03-3.92-3.06-6.59.74-2.02,1.71-3.98,2.89-5.82,1.53-2.39,4.71-3.09,7.09-1.56,2.39,1.53,3.09,4.71,1.56,7.09-.78,1.22-1.42,2.5-1.9,3.82-.76,2.08-2.73,3.37-4.82,3.37Z"/>
      </g>
      <g>
        <path class="cls-1" d="M459.51,270.69c-2.37,0-4.5-1.65-5.02-4.07-.59-2.77,1.18-5.5,3.95-6.09,2.21-.47,4.51-.62,6.82-.45,2.83.21,4.95,2.68,4.73,5.51-.21,2.83-2.69,4.94-5.51,4.73-1.34-.1-2.65-.02-3.9.25-.36.08-.72.11-1.08.11Z"/>
        <path class="cls-1" d="M477.51,275.83c-1.21,0-2.43-.43-3.41-1.3-.07-.06-.14-.12-.21-.19-1.07-.93-2.24-1.71-3.47-2.33-2.53-1.28-3.54-4.37-2.26-6.9,1.28-2.53,4.37-3.54,6.9-2.26,1.98,1,3.84,2.25,5.54,3.72.11.09.22.19.33.29,2.12,1.89,2.31,5.13.42,7.25-1.01,1.14-2.42,1.72-3.84,1.72Z"/>
        <path class="cls-1" d="M483.8,296.83c-.55,0-1.11-.09-1.65-.27-2.69-.91-4.12-3.83-3.21-6.52.42-1.24.63-2.56.63-3.93v-.09c0-1.26.44-2.43,1.19-3.33-1.08-.5-1.99-1.38-2.51-2.55-.87-1.94-2.12-3.69-3.7-5.2-2.05-1.96-2.12-5.21-.16-7.26,1.96-2.05,5.21-2.12,7.26-.16,2.55,2.44,4.56,5.27,5.97,8.42.83,1.85.48,3.94-.74,5.4,1.74.81,2.95,2.57,2.96,4.62v.15c0,2.5-.4,4.93-1.18,7.24-.73,2.14-2.72,3.48-4.86,3.48Z"/>
        <path class="cls-1" d="M480.74,302.18c-1.19,0-2.38-.41-3.35-1.25-2.15-1.85-2.39-5.1-.53-7.24.8-.93,1.44-1.98,1.89-3.13,1.04-2.64,4.03-3.93,6.67-2.89,2.64,1.04,3.93,4.03,2.89,6.67-.88,2.22-2.11,4.26-3.67,6.06-1.02,1.18-2.45,1.78-3.89,1.78Z"/>
      </g>
      <g>
        <path class="cls-1" d="M539.85,287.35c-.54,0-1.1-.09-1.64-.27-2.69-.91-4.13-3.82-3.22-6.51.69-2.04,1.23-3.98,1.63-5.78.6-2.77,3.34-4.53,6.11-3.93,2.77.6,4.53,3.34,3.93,6.11-.47,2.17-1.12,4.49-1.93,6.89-.72,2.14-2.72,3.5-4.87,3.5Z"/>
        <path class="cls-1" d="M541.44,268.55c-1.91,0-3.74-1.07-4.63-2.9-.09-.18-.16-.27-.19-.3-.28-.14-1.24-.44-2.81-.44-2.84,0-5.13-2.31-5.12-5.15,0-2.83,2.31-5.12,5.14-5.12h.01c3.31,0,6.26.74,8.31,2.05,1.67,1.07,2.99,2.58,3.91,4.49,1.23,2.55.17,5.63-2.39,6.86-.72.35-1.48.51-2.23.51Z"/>
        <path class="cls-1" d="M503.32,282.05c-1.32,0-2.64-.5-3.64-1.51-2-2.01-1.99-5.26.02-7.26,2.93-2.91,5.34-5.06,6.85-6.35,2.16-1.84,5.4-1.59,7.24.56,1.84,2.16,1.59,5.4-.56,7.24-1.37,1.18-3.58,3.14-6.28,5.83-1,1-2.31,1.5-3.62,1.5ZM520.31,268.8c-1.84,0-3.62-.99-4.55-2.74-1.33-2.51-.37-5.62,2.14-6.94,5.03-2.66,9.87-4.15,14.36-4.44,2.83-.18,5.27,1.97,5.45,4.8.18,2.83-1.97,5.27-4.8,5.45-2.09.13-5.55.81-10.21,3.27-.77.4-1.59.6-2.4.6Z"/>
        <path class="cls-1" d="M497.92,287.71c-1.23,0-2.46-.44-3.45-1.33-2.1-1.9-2.26-5.15-.36-7.25,1.54-1.7,3.11-3.36,4.67-4.95,1.99-2.02,5.25-2.04,7.26-.04,2.02,1.99,2.04,5.25.04,7.26-1.46,1.48-2.93,3.03-4.37,4.62-1.01,1.12-2.41,1.69-3.81,1.69Z"/>
      </g>
      <g>
        <path class="cls-1" d="M535.46,281.69c-.95,0-1.91-.26-2.76-.81-2.39-1.53-3.09-4.71-1.56-7.09,1.09-1.7,2.27-3.33,3.53-4.86,1.8-2.19,5.04-2.51,7.23-.7,2.19,1.8,2.51,5.04.7,7.23-1,1.21-1.94,2.51-2.81,3.87-.98,1.53-2.64,2.37-4.33,2.37Z"/>
        <path class="cls-1" d="M545.02,271.1c-1.54,0-3.06-.69-4.07-2-1.73-2.25-1.31-5.47.94-7.2,2.04-1.57,4.15-2.88,6.28-3.9,2.56-1.22,5.63-.14,6.85,2.42,1.22,2.56.14,5.63-2.42,6.85-1.48.71-2.97,1.64-4.44,2.77-.93.72-2.04,1.07-3.13,1.07Z"/>
        <path class="cls-1" d="M569.78,276.23c-2.44,0-4.61-1.75-5.05-4.24-.27-1.53-.76-2.81-1.45-3.81-.6-.87-.9-1.86-.92-2.84-.89.44-1.91.63-2.96.48-1.74-.24-3.92.17-6.17,1.15-2.6,1.13-5.63-.06-6.76-2.66-1.13-2.6.06-5.63,2.66-6.76,3.16-1.37,6.26-2.07,9.23-2.07.82,0,1.63.05,2.42.16,2.55.35,4.4,2.5,4.44,5,2.24-1.11,5.02-.44,6.49,1.68,1.54,2.22,2.59,4.87,3.13,7.87.5,2.79-1.36,5.46-4.16,5.96-.3.05-.61.08-.91.08Z"/>
        <path class="cls-1" d="M570,282.48c-.16,0-.31,0-.47-.02-2.83-.26-4.91-2.75-4.65-5.58.14-1.51.12-2.94-.05-4.25-.37-2.81,1.61-5.39,4.42-5.77,2.81-.37,5.39,1.61,5.77,4.42.27,2.06.31,4.25.1,6.52-.24,2.67-2.48,4.67-5.11,4.67Z"/>
      </g>
      <path class="cls-1" d="M528.15,319.21c-.98,0-1.93-.17-2.83-.52-2.56-.98-5.66-3.64-5.92-10.73,0-.24,0-.47.02-.7-.03-.22-.04-.45-.04-.69.05-3.79.84-8.29,2.28-13.02.83-2.71,3.7-4.24,6.41-3.42,2.71.83,4.24,3.7,3.42,6.41-1.15,3.76-1.8,7.37-1.84,10.16,0,.15-.01.29-.02.44.02.14.03.28.03.43.03.71.1,1.23.17,1.59,2,.64,3.49,2.48,3.57,4.71.1,2.83-2.11,5.22-4.95,5.32-.09,0-.19,0-.28,0h-.03ZM536.69,311.83c-.97,0-1.95-.27-2.81-.84-2.37-1.56-3.03-4.74-1.47-7.11,1.77-2.69,3.43-6,4.8-9.56,0,0,0-.01,0-.02.06-.16.13-.32.21-.47.04-.17.09-.33.15-.5.89-2.43,1.58-4.83,2.07-7.13.59-2.78,3.31-4.55,6.09-3.96,2.78.59,4.55,3.31,3.96,6.09-.59,2.77-1.42,5.63-2.47,8.52-.07.19-.15.38-.24.56-.05.19-.11.38-.18.56,0,.01,0,.02-.01.04-1.63,4.23-3.63,8.21-5.79,11.5-.99,1.5-2.63,2.32-4.3,2.32ZM530.93,289.54c-.8,0-1.62-.19-2.38-.59-2.51-1.31-3.49-4.42-2.17-6.93,1.55-2.96,3.21-5.55,4.94-7.7.14-.18.29-.34.45-.49.12-.18.26-.36.41-.53,3.23-3.68,6.49-5.55,9.71-5.55.98,0,1.93.17,2.83.52,1.74.67,4.05,2.27,5.21,6.09.82,2.72-.71,5.58-3.43,6.4-2.1.64-4.29-.14-5.56-1.78-.3.28-.65.64-1.04,1.08-.1.11-.2.22-.31.33-.08.13-.17.25-.27.37-1.29,1.6-2.62,3.69-3.84,6.02-.92,1.75-2.7,2.76-4.56,2.76Z"/>
      <g>
        <path class="cls-1" d="M587.19,263.72h-5.39c-2.84,0-5.14-2.3-5.14-5.14s2.3-5.14,5.14-5.14h5.39c2.84,0,5.14,2.3,5.14,5.14s-2.3,5.14-5.14,5.14Z"/>
        <path class="cls-1" d="M600.44,263.72h-5.49c-2.84,0-5.14-2.3-5.14-5.14s2.3-5.14,5.14-5.14h5.49c2.84,0,5.14,2.3,5.14,5.14s-2.3,5.14-5.14,5.14Z"/>
        <path class="cls-1" d="M622.38,263.72h-5.49c-1.55,0-2.94-.69-3.88-1.77-.94,1.08-2.33,1.77-3.88,1.77h-7.95c-2.84,0-5.14-2.3-5.14-5.14s2.3-5.14,5.14-5.14h7.95c1.55,0,2.94.69,3.88,1.77.94-1.08,2.33-1.77,3.88-1.77h5.49c2.84,0,5.14,2.3,5.14,5.14s-2.3,5.14-5.14,5.14Z"/>
        <path class="cls-1" d="M628.53,263.72h-5.39c-2.84,0-5.14-2.3-5.14-5.14s2.3-5.14,5.14-5.14h5.39c2.84,0,5.14,2.3,5.14,5.14s-2.3,5.14-5.14,5.14Z"/>
      </g>
    </g>
  </g>
</svg>