<?xml version="1.0" encoding="UTF-8"?>
<svg id="_레이어_2" data-name="레이어 2" xmlns="http://www.w3.org/2000/svg" viewBox="0 0 416.39 399.91">
  <defs>
    <style>
      .cls-1 {
        fill: #fff;
      }

      .cls-2 {
        fill: #1b2091;
      }

      .cls-3 {
        fill: none;
      }

      .cls-4 {
        fill: #271613;
      }

      .cls-5 {
        fill: #ff0;
      }
    </style>
  </defs>
  <g id="_레이어_1-2" data-name="레이어 1">
    <g>
      <polygon class="cls-5" points="416.1 217.75 416.39 217.16 415.68 217.16 338.18 107.8 182.66 107.8 91.83 217.16 91.66 217.16 91.39 217.7 91.18 217.94 91.26 217.94 0 399.91 324.73 399.91 415.89 218.16 416.39 218.16 416.1 217.75"/>
      <rect class="cls-3" width="416.39" height="399.91"/>
      <g>
        <circle class="cls-2" cx="259.61" cy="107.8" r="14.33"/>
        <path class="cls-4" d="M259.61,123.15c-8.46,0-15.35-6.89-15.35-15.35s6.89-15.35,15.35-15.35,15.35,6.89,15.35,15.35-6.89,15.35-15.35,15.35ZM259.61,94.49c-7.34,0-13.31,5.97-13.31,13.31s5.97,13.31,13.31,13.31,13.31-5.97,13.31-13.31-5.97-13.31-13.31-13.31Z"/>
      </g>
      <g id="_9FNRj1.tif" data-name="9FNRj1.tif">
        <g>
          <path class="cls-1" d="M259.44,94.72c-7.1.01-12.93,5.92-12.9,13.06.03,7.42,5.73,13.09,13.17,13.09,7.05,0,12.98-5.97,12.96-13.05-.02-7.33-5.86-13.12-13.23-13.11ZM259.62,118.87c-5.96.05-11.09-5.07-11.09-11.07,0-5.99,5.13-11.12,11.09-11.07,5.98.05,10.93,5.01,10.98,10.99.05,6.04-4.94,11.1-10.98,11.15Z"/>
          <path class="cls-1" d="M265.81,105.72c-2.09,3.26-4.15,6.47-6.37,9.94-2.15-3.35-4.19-6.53-6.31-9.85,1.17-.42,1.94-.41,2.59.69,1.15,1.95,2.41,3.84,3.72,5.91,1.26-1.99,2.39-3.77,3.53-5.56q.88-1.39,2.84-1.13Z"/>
          <path class="cls-1" d="M264.37,101.39c0,.25-.01.5-.02.75-.64.38-1.25,1.03-1.92,1.09-.95.09-1.7-.67-1.43-1.63.16-.58.98-1.35,1.5-1.36.62,0,1.24.73,1.85,1.15Z"/>
          <path class="cls-1" d="M258.48,101.43c-.01.24-.02.47-.04.71-.58.39-1.14,1.03-1.75,1.1-1.05.12-1.79-.65-1.54-1.68.14-.56,1-1.32,1.53-1.32.6,0,1.2.76,1.8,1.18Z"/>
        </g>
      </g>
    </g>
  </g>
</svg>