<?xml version="1.0" encoding="UTF-8"?>
<svg id="_레이어_2" data-name="레이어 2" xmlns="http://www.w3.org/2000/svg" viewBox="0 0 416.39 399.91">
  <defs>
    <style>
      .cls-1 {
        fill: #fff;
      }

      .cls-2 {
        fill: none;
      }

      .cls-3 {
        fill: #1c2088;
      }

      .cls-4 {
        fill: #251714;
      }

      .cls-5 {
        fill: #ff0;
      }
    </style>
  </defs>
  <g id="_레이어_1-2" data-name="레이어 1">
    <g>
      <polygon class="cls-5" points="374.15 242.11 374.19 241.93 374.02 241.91 322.4 164.63 111.07 138.79 42.43 201.17 42.2 201.15 42.2 201.38 42.2 201.38 42.2 201.38 42.2 399.91 338.84 399.91 374.14 242.16 374.19 242.17 374.15 242.11"/>
      <rect class="cls-2" width="416.39" height="399.91"/>
      <g>
        <circle class="cls-3" cx="214.97" cy="149.01" r="13.86"/>
        <path class="cls-4" d="M214.97,163.86c-8.19,0-14.85-6.66-14.85-14.85s6.66-14.85,14.85-14.85,14.85,6.66,14.85,14.85-6.66,14.85-14.85,14.85ZM214.97,136.14c-7.1,0-12.87,5.77-12.87,12.87s5.77,12.87,12.87,12.87,12.87-5.77,12.87-12.87-5.77-12.87-12.87-12.87Z"/>
      </g>
      <g id="ZhpIZh.tif">
        <g>
          <path class="cls-1" d="M214.79,136.32c-6.87.02-12.52,5.75-12.49,12.66.03,7.26,5.59,12.76,12.87,12.72,6.8-.03,12.56-5.9,12.48-12.72-.08-7.13-5.72-12.68-12.86-12.66ZM205.1,144.89c1.42-3.75,5.56-6.55,9.78-6.62,4.07-.07,8.46,2.71,9.82,6.52.48,1.35-.24,2.85-.68,4.22-1.21,3.74-5.02,6.46-8.92,6.44-4.62-.02-8.77-3.67-9.39-8.22-.07-.5.15-1.14-.6-1.43-.52-.21-.12-.62,0-.91ZM215.02,159.72c-5.6.04-9.85-4.29-10.35-8.64,2.45,3.91,5.62,6.11,9.94,6.27,4.28.16,7.63-1.67,10.3-5.34-.49,3.55-4.53,7.66-9.89,7.7Z"/>
          <path class="cls-1" d="M217.87,143.71c-.93.02-1.56-.45-1.61-1.46-.05-1.01.5-1.49,1.25-1.6,1.18.01,1.77.52,1.82,1.47.05.96-.5,1.57-1.47,1.59Z"/>
          <path class="cls-1" d="M213.64,142.2c-.05.92-.53,1.51-1.51,1.51-.95,0-1.55-.55-1.56-1.51-.01-.94.48-1.54,1.49-1.55.99,0,1.48.54,1.58,1.55Z"/>
        </g>
      </g>
    </g>
  </g>
</svg>