<?xml version="1.0" encoding="UTF-8"?>
<svg id="_레이어_2" data-name="레이어 2" xmlns="http://www.w3.org/2000/svg" viewBox="0 0 416.39 399.91">
  <defs>
    <style>
      .cls-1 {
        fill: #2a1512;
      }

      .cls-2 {
        fill: #fcfcfc;
      }

      .cls-3 {
        fill: #fff;
      }

      .cls-4 {
        fill: #1a2092;
      }

      .cls-5 {
        fill: none;
      }

      .cls-6 {
        fill: #ff0;
      }
    </style>
  </defs>
  <g id="_레이어_1-2" data-name="레이어 1">
    <g>
      <polygon class="cls-6" points="330.61 116.57 106.03 125.33 67.53 230.26 34.82 399.91 315.61 399.91 381.57 212.55 330.61 116.57"/>
      <rect class="cls-5" width="416.39" height="399.91"/>
      <g>
        <circle class="cls-4" cx="220.18" cy="119.46" r="13.8"/>
        <path class="cls-1" d="M220.18,134.24c-8.15,0-14.78-6.63-14.78-14.78s6.63-14.78,14.78-14.78,14.78,6.63,14.78,14.78-6.63,14.78-14.78,14.78ZM220.18,106.64c-7.07,0-12.81,5.75-12.81,12.81s5.75,12.81,12.81,12.81,12.81-5.75,12.81-12.81-5.75-12.81-12.81-12.81Z"/>
      </g>
      <path class="cls-3" d="M220.02,106.86c-6.83.01-12.45,5.7-12.43,12.58.03,7.14,5.52,12.6,12.68,12.61,6.79,0,12.5-5.75,12.48-12.57-.02-7.06-5.64-12.63-12.74-12.62ZM220.2,130.11c-5.74.05-10.68-4.88-10.68-10.66,0-5.77,4.94-10.7,10.68-10.66,5.76.04,10.53,4.82,10.58,10.58.05,5.82-4.75,10.69-10.58,10.74Z"/>
      <g id="_8a7pvY.tif" data-name="8a7pvY.tif">
        <path class="cls-2" d="M220.2,106.85c-7.04-.03-12.57,5.49-12.67,12.51-.1,6.92,5.62,12.66,12.57,12.7,6.89.04,12.65-5.61,12.66-12.53.02-6.89-5.36-12.65-12.57-12.68ZM220.03,128.31c-1.91-4.62-3.75-9.06-5.61-13.57h11.64c-2,4.5-3.97,8.94-6.03,13.57ZM220.69,130.16c-.11-.32.11-.54.23-.79,2.18-4.77,4.36-9.54,6.55-14.3.25-.55.36-1.09.24-1.76h-15.37c-.14.56-.07,1.07.16,1.6,2.15,4.97,4.29,9.94,6.43,14.91.03.09.07.17.1.27-3.09.13-7.97-2.66-9.32-7.73-1.54-5.74,1.64-10.94,5.92-12.71.3,1.29.95,1.82,1.91,1.57,1-.26,1.3-1.07.86-2.46,1.08-.19,2.14-.12,3.28-.06-.24.68-.43,1.29-.05,1.92.21.34.51.51.86.61.95.26,1.52-.21,1.97-1.64,3.82,1.38,7.52,6.21,6.3,12.12-1.18,5.7-6.47,8.66-10.07,8.46Z"/>
      </g>
    </g>
  </g>
</svg>