<?xml version="1.0" encoding="UTF-8"?>
<svg id="_레이어_2" data-name="레이어 2" xmlns="http://www.w3.org/2000/svg" viewBox="0 0 416.39 399.91">
  <defs>
    <style>
      .cls-1 {
        fill: #2a1512;
      }

      .cls-2 {
        fill: #fcfcfc;
      }

      .cls-3 {
        fill: #fff;
      }

      .cls-4 {
        fill: #1a2092;
      }

      .cls-5 {
        fill: none;
      }

      .cls-6 {
        fill: #ff0;
      }
    </style>
  </defs>
  <g id="_레이어_1-2" data-name="레이어 1">
    <g>
      <polygon class="cls-6" points="377.11 207.92 377.35 207.5 376.93 207.5 328.85 94.25 79.4 94.25 39.39 207.5 39.04 207.5 39.26 207.87 39.04 208.5 39.63 208.5 152.43 399.91 265.83 399.91 376.77 208.5 377.35 208.5 377.11 207.92"/>
      <rect class="cls-5" width="416.39" height="399.91"/>
      <g>
        <circle class="cls-4" cx="208.19" cy="94.25" r="13.8"/>
        <path class="cls-1" d="M208.19,109.03c-8.15,0-14.78-6.63-14.78-14.78s6.63-14.78,14.78-14.78,14.78,6.63,14.78,14.78-6.63,14.78-14.78,14.78ZM208.19,81.44c-7.07,0-12.81,5.75-12.81,12.81s5.75,12.81,12.81,12.81,12.81-5.75,12.81-12.81-5.75-12.81-12.81-12.81Z"/>
      </g>
      <path class="cls-3" d="M208.04,81.66c-6.83.01-12.45,5.7-12.43,12.58.03,7.14,5.52,12.6,12.68,12.61,6.79,0,12.5-5.75,12.48-12.57-.02-7.06-5.64-12.63-12.74-12.62ZM208.21,104.91c-5.74.05-10.68-4.88-10.68-10.66,0-5.77,4.94-10.7,10.68-10.66,5.76.04,10.53,4.82,10.58,10.58.05,5.82-4.75,10.69-10.58,10.74Z"/>
      <g id="QRkMjC.tif">
        <g>
          <path class="cls-2" d="M213.16,99.15c-1.04,3.77-4.61,4.26-7.18,3.03-1.57-.76-2.14-2.24-2.19-3.86-.08-2.5-.03-5.01-.03-7.52,0-.1.06-.19.1-.33.56,0,1.03,0,1.51,0,.1,0,.2.04.39.07,0,.71,0,1.42,0,2.12,0,1.87-.02,3.75.03,5.62.04,1.45.86,2.45,2.04,2.65,1.46.25,2.49-.29,3.14-1.66.28-.6.44-1.24.48-1.9.13-2.18,0-4.32-.84-6.37-.05-.12-.07-.25-.15-.52.63,0,1.19-.01,1.75,0,.3.01.36.29.43.51.91,2.67,1.27,5.4.51,8.16Z"/>
          <path class="cls-2" d="M211.91,86.88c.02.64-.52,1.2-1.18,1.23-.66.03-1.24-.48-1.28-1.13-.04-.67.52-1.25,1.22-1.26.66,0,1.22.51,1.24,1.16Z"/>
          <path class="cls-2" d="M207.07,86.94c-.01.69-.52,1.19-1.21,1.17-.66-.01-1.19-.56-1.17-1.23.01-.66.55-1.18,1.23-1.16.7.01,1.17.51,1.16,1.21Z"/>
        </g>
      </g>
    </g>
  </g>
</svg>