<?xml version="1.0" encoding="UTF-8"?>
<svg id="_레이어_2" data-name="레이어 2" xmlns="http://www.w3.org/2000/svg" viewBox="0 0 174.52 34.73">
  <defs>
    <style>
      .cls-1 {
        fill: #1d287b;
        stroke: #1d287b;
        stroke-miterlimit: 10;
        stroke-width: .5px;
      }
    </style>
  </defs>
  <g id="_레이어_1-2" data-name="레이어 1">
    <g>
      <path class="cls-1" d="M10.29,7.7c4.03.61,6.77,3.64,6.77,7.34,0,.9-.18,1.73-.47,2.52.76.07,1.58.11,2.45.07,1.66,0,3.13-.11,4.39-.22v-6.66c-.43,0-.79.04-1.12.04-1.22.11-2.05.29-2.52.54-.25.14-.47.22-.61.22-.68,0-1.84-.5-3.35-1.55-.25-.18-.4-.36-.4-.54,0-.25.25-.32.76-.29.97.11,2.02.18,3.17.14,1.37,0,2.74-.07,4.07-.22V3.38c-.61-.86-1.69-1.55-3.24-2.05-.4-.11-.58-.29-.58-.54,0-.36.5-.54,1.48-.54,1.33,0,2.84.29,4.57.86.58.18.86.54.86,1.04,0,.43-.18,1.58-.18,2.16v19.58c0,2.84-.11,5.08-.32,6.73-.32,2.59-.9,3.85-1.66,3.85-.65,0-.94-1.33-.94-4.07v-11.41c-1.15.07-2.09.18-2.77.29-1.04.18-1.51.58-1.84.58s-.9-.22-1.76-.61c-.4-.18-.72-.36-1.01-.54-1.4,2.3-4.07,3.82-7.34,3.82C3.81,22.53.25,19.22.25,15.04c0-3.92,3.17-7.13,7.67-7.45.22-.22.4-.43.4-.65,0-.29-.14-.5-.58-.76-.25-.14-.4-.25-.4-.47,0-.25.18-.47.83-.47.61,0,1.62.22,2.23.58.32.18.5.43.5.65,0,.32-.25.76-.61,1.22ZM8.71,20.05c3.1,0,5.47-2.16,5.47-5.11s-2.38-5.08-5.47-5.08-5.44,2.12-5.44,5.08,2.34,5.11,5.44,5.11Z"/>
      <path class="cls-1" d="M63.07,19.69c-1.51-.11-2.95-.18-4.39-.18-6.84,0-13.1.14-17.35.47-.72.04-1.26.11-1.69.14-1.3.25-2.09.76-2.52.76-.18,0-.36-.04-.61-.11-1.22-.4-2.52-1.01-3.78-1.87-.36-.25-.54-.47-.54-.72,0-.29.25-.4.83-.29,1.58.25,3.35.4,5.29.4,5.08,0,11.19-.11,16.85-.36,1.87-.11,3.06-.29,3.6-.58.58-.29,1.01-.43,1.4-.43,1.33,0,2.48.14,3.46.43.72.25,1.12.65,1.12,1.19,0,.86-.58,1.26-1.66,1.15ZM57.63,14.83c-5.51.04-11.01.14-15.3.29-2.09.04-2.92-.61-2.92-2.52v-2.77c-.5-.5-1.3-.86-2.34-1.12-.4-.07-.58-.25-.58-.54,0-.32.32-.47.94-.47,1.33-.04,2.66.04,3.92.25.18,0,.83.32,1.69.32,3.71-.04,7.56-.18,10.76-.36.18,0,.32-.07.43-.25.11-.94.14-2.27.11-3.67-3.1.04-6.66.14-9.5.32-2.2.18-2.84.72-3.2.72-.25,0-.5-.04-.76-.14-1.37-.54-2.45-1.08-3.24-1.62-.25-.18-.36-.32-.36-.5,0-.36.25-.47.76-.4,1.19.22,2.48.32,3.92.36,6.05.11,10.55,0,12.31-.4.14-.04.94-.32,1.22-.32.54,0,1.26.11,2.2.32.47.11.68.32.68.58,0,.22-.25.54-.72.97-.22,1.37-.68,2.77-1.08,3.82.86.22,1.26.58,1.26,1.01,0,.47-.32.72-1.04.72-5.69.11-10.69.22-14.18.32-.04.22-.04.43-.04.61v2.38c0,.54.22.79.65.79,2.66.04,5.29-.04,7.13-.22,1.66-.14,2.77-.36,3.46-.65.54-.25,1.01-.4,1.37-.4,2.48,0,4,.04,4,1.33,0,.79-.54,1.19-1.55,1.22ZM57.38,24.87c-.32,2.12-.68,3.92-1.15,5.76.94.25,1.4.65,1.4,1.15,0,.58-.61.83-1.76.83-3.71-.04-8.06,0-12.45.14-.29,1.12-.79,1.73-1.51,1.73-.47,0-.79-.68-.94-1.94l-.72-7.49c-.4-.47-1.15-.86-2.3-1.19-.4-.11-.61-.29-.61-.5,0-.32.61-.61,1.08-.61,1.19,0,2.27.07,3.2.22.83.14,1.37.29,1.62.4,3.49.04,7.27-.07,10.55-.32.29-.04,1.12-.29,1.44-.29.9,0,1.69.11,2.41.29.36.14.54.32.54.58,0,.4-.76.83-.79,1.26ZM43.34,24.98c-.04.22-.04.47,0,.79l.14,5.29c4.18.04,7.74-.04,10.01-.22.25,0,.43-.14.61-.4l.14-5.76c-3.89,0-7.77.07-10.91.29Z"/>
      <path class="cls-1" d="M93.99,4.32v19.58c0,2.84-.11,5.08-.32,6.73-.32,2.59-.86,3.85-1.66,3.85-.61,0-.9-1.33-.9-4.07v-7.42c-1.98.5-5.15,1.08-8.64,1.69-1.62.29-4.46.61-8.39,1.04-.76.07-1.4.25-1.94.54-.25.14-.58.18-.86.18-.83,0-2.34-.72-4.46-2.12-.32-.22-.5-.43-.5-.68,0-.32.29-.43.83-.4,1.8.25,3.64.32,5.47.22,3.64-.11,6.77-.36,9.36-.65,3.64-.4,7.02-.86,9.14-1.26V3.38c-.65-.86-1.69-1.55-3.28-2.05-.36-.11-.54-.29-.54-.54,0-.36.47-.54,1.44-.54,1.33,0,2.84.29,4.57.86.58.18.86.54.86,1.04,0,.43-.18,1.58-.18,2.16ZM77.11,5c.29-.22.43-.4.43-.61,0-.25-.14-.47-.58-.72-.25-.18-.4-.32-.4-.47,0-.29.18-.5.76-.5.79,0,1.58.18,2.3.61.25.14.47.43.47.68,0,.18-.22.54-.61,1.12,3.89.58,6.37,3.28,6.37,6.66,0,3.82-3.13,6.73-7.95,6.73s-8.06-2.92-8.06-6.73c0-3.6,2.92-6.48,7.27-6.77ZM77.9,16.27c3.06,0,5.15-1.98,5.15-4.46s-2.09-4.46-5.15-4.46-5.11,2.05-5.11,4.46,2.05,4.46,5.11,4.46Z"/>
      <path class="cls-1" d="M128.77,7.81c-.11.11-.29.29-.47.54-1.01,2.41-2.38,4.9-4.1,7.23l1.48,1.44c.79.79,1.76,1.4,2.77,1.76,1.01.4,1.48,1.19,2.23,2.7.32.79.54,1.3.54,1.58,0,.68-.29,1.08-.86,1.08-.4,0-.83-.25-1.33-.86l-5.98-6.26c-.4.47-.83.94-1.26,1.37-2.7,2.77-6.16,5.15-9.68,7.13-.22.14-.4.22-.54.22-.25,0-.4-.18-.4-.47,0-.18.14-.36.47-.61,2.66-2.02,5.54-4.46,7.95-7.45,2.52-3.13,4.32-6.41,5.33-9.18-2.16.04-4.07.14-5.76.36-.72.07-1.3.25-1.76.54-.25.18-.5.25-.68.25-.68,0-1.84-.54-3.46-1.58-.32-.22-.47-.43-.47-.61,0-.32.18-.43.58-.4,1.15.14,2.41.22,3.74.22,3.28,0,5.76-.07,7.49-.25.43-.04.72-.11.9-.22.32-.18.58-.25.76-.25.76,0,1.51.11,2.38.36.43.14.65.32.65.58,0,.22-.18.47-.5.79ZM136.83,4.32v11.3c.86,0,1.44-.11,1.8-.43.32-.25.68-.43,1.04-.54.97-.25,2.05-.25,3.17.04.58.18.86.54.86,1.08,0,.79-.54,1.19-1.55,1.22-1.87.04-3.64.07-5.33.11v6.8c0,2.84-.11,5.08-.32,6.73-.32,2.59-.9,3.85-1.66,3.85-.58,0-.9-1.33-.9-4.07V3.38c-.61-.86-1.69-1.55-3.28-2.05-.4-.11-.58-.29-.58-.54,0-.36.54-.54,1.51-.54,1.33,0,2.84.29,4.54.86.58.18.86.54.86,1.04,0,.43-.18,1.58-.18,2.16Z"/>
      <path class="cls-1" d="M157.57,8.71c-.61,1.76-1.37,3.67-2.34,5.47l2.12,2.41c.72.79,1.37,1.37,2.12,1.69.47.22.83.61,1.12,1.15.68,1.3,1.04,2.2,1.12,2.81.04.68-.22,1.08-.83,1.12-.4.04-.86-.32-1.4-1.04l-5.08-6.66c-.29.5-.61.97-.9,1.4-1.98,2.84-4.32,5.44-6.7,7.09-.32.25-.61.36-.79.36-.29,0-.43-.14-.43-.4,0-.18.14-.4.47-.76,1.8-1.87,3.6-4.46,5.11-7.2,1.51-2.66,2.56-5.47,3.13-7.78-.25-.54-.97-1.08-2.09-1.66-.43-.22-.68-.47-.68-.68,0-.29.43-.43,1.19-.43.29,0,.54.04.79.07,1.94.43,3.2.9,3.85,1.37.25.18.4.43.4.72,0,.25-.07.58-.18.94ZM167.75,6.77v14.79c0,1.94-.07,3.74-.22,5.4-.29,3.28-.86,4.93-1.73,4.93-.58,0-.86-1.33-.86-4v-13.03c-1.4.07-2.38.25-2.95.54-.32.18-.54.25-.68.25-.18,0-.43-.04-.72-.14-.68-.29-1.44-.72-2.27-1.3-.25-.18-.36-.32-.36-.5,0-.25.22-.32.65-.29.97.11,1.91.14,2.88.11,1.26-.04,2.41-.11,3.46-.22v-7.52c-.47-.79-1.37-1.4-2.74-1.87-.4-.11-.58-.29-.58-.5,0-.4.47-.58,1.48-.58,1.12,0,2.45.25,4,.83.54.18.79.54.79,1.04,0,.43-.14,1.62-.14,2.05ZM174.16,2.95c-.07.36-.11.83-.11,1.33v19.91c0,2.3-.07,4.32-.29,5.98-.29,2.92-.83,4.32-1.66,4.32-.65,0-.94-1.4-.94-4.25V3.31c-.54-.83-1.58-1.51-3.06-2.02-.36-.11-.54-.29-.54-.5,0-.36.5-.54,1.51-.54,1.15,0,2.56.29,4.25.9.65.18.94.5.94,1.01,0,.25-.04.5-.11.79Z"/>
    </g>
  </g>
</svg>