<?xml version="1.0" encoding="UTF-8"?>
<svg id="_레이어_2" data-name="레이어 2" xmlns="http://www.w3.org/2000/svg" viewBox="0 0 256.49 34.73">
  <defs>
    <style>
      .cls-1 {
        fill: #1d287b;
        stroke: #1d287b;
        stroke-miterlimit: 10;
        stroke-width: .5px;
      }
    </style>
  </defs>
  <g id="_레이어_1-2" data-name="레이어 1">
    <g>
      <path class="cls-1" d="M10.29,7.7c4.03.61,6.77,3.64,6.77,7.34,0,.9-.18,1.73-.47,2.52.76.07,1.58.11,2.45.07,1.66,0,3.13-.11,4.39-.22v-6.66c-.43,0-.79.04-1.12.04-1.22.11-2.05.29-2.52.54-.25.14-.47.22-.61.22-.68,0-1.84-.5-3.35-1.55-.25-.18-.4-.36-.4-.54,0-.25.25-.32.76-.29.97.11,2.02.18,3.17.14,1.37,0,2.74-.07,4.07-.22V3.38c-.61-.86-1.69-1.55-3.24-2.05-.4-.11-.58-.29-.58-.54,0-.36.5-.54,1.48-.54,1.33,0,2.84.29,4.57.86.58.18.86.54.86,1.04,0,.43-.18,1.58-.18,2.16v19.58c0,2.84-.11,5.08-.32,6.73-.32,2.59-.9,3.85-1.66,3.85-.65,0-.94-1.33-.94-4.07v-11.41c-1.15.07-2.09.18-2.77.29-1.04.18-1.51.58-1.84.58s-.9-.22-1.76-.61c-.4-.18-.72-.36-1.01-.54-1.4,2.3-4.07,3.82-7.34,3.82C3.81,22.53.25,19.22.25,15.04c0-3.92,3.17-7.13,7.67-7.45.22-.22.4-.43.4-.65,0-.29-.14-.5-.58-.76-.25-.14-.4-.25-.4-.47,0-.25.18-.47.83-.47.61,0,1.62.22,2.23.58.32.18.5.43.5.65,0,.32-.25.76-.61,1.22ZM8.71,20.05c3.1,0,5.47-2.16,5.47-5.11s-2.38-5.08-5.47-5.08-5.44,2.12-5.44,5.08,2.34,5.11,5.44,5.11Z"/>
      <path class="cls-1" d="M63.07,19.69c-1.51-.11-2.95-.18-4.39-.18-6.84,0-13.1.14-17.35.47-.72.04-1.26.11-1.69.14-1.3.25-2.09.76-2.52.76-.18,0-.36-.04-.61-.11-1.22-.4-2.52-1.01-3.78-1.87-.36-.25-.54-.47-.54-.72,0-.29.25-.4.83-.29,1.58.25,3.35.4,5.29.4,5.08,0,11.19-.11,16.85-.36,1.87-.11,3.06-.29,3.6-.58.58-.29,1.01-.43,1.4-.43,1.33,0,2.48.14,3.46.43.72.25,1.12.65,1.12,1.19,0,.86-.58,1.26-1.66,1.15ZM57.63,14.83c-5.51.04-11.01.14-15.3.29-2.09.04-2.92-.61-2.92-2.52v-2.77c-.5-.5-1.3-.86-2.34-1.12-.4-.07-.58-.25-.58-.54,0-.32.32-.47.94-.47,1.33-.04,2.66.04,3.92.25.18,0,.83.32,1.69.32,3.71-.04,7.56-.18,10.76-.36.18,0,.32-.07.43-.25.11-.94.14-2.27.11-3.67-3.1.04-6.66.14-9.5.32-2.2.18-2.84.72-3.2.72-.25,0-.5-.04-.76-.14-1.37-.54-2.45-1.08-3.24-1.62-.25-.18-.36-.32-.36-.5,0-.36.25-.47.76-.4,1.19.22,2.48.32,3.92.36,6.05.11,10.55,0,12.31-.4.14-.04.94-.32,1.22-.32.54,0,1.26.11,2.2.32.47.11.68.32.68.58,0,.22-.25.54-.72.97-.22,1.37-.68,2.77-1.08,3.82.86.22,1.26.58,1.26,1.01,0,.47-.32.72-1.04.72-5.69.11-10.69.22-14.18.32-.04.22-.04.43-.04.61v2.38c0,.54.22.79.65.79,2.66.04,5.29-.04,7.13-.22,1.66-.14,2.77-.36,3.46-.65.54-.25,1.01-.4,1.37-.4,2.48,0,4,.04,4,1.33,0,.79-.54,1.19-1.55,1.22ZM57.38,24.87c-.32,2.12-.68,3.92-1.15,5.76.94.25,1.4.65,1.4,1.15,0,.58-.61.83-1.76.83-3.71-.04-8.06,0-12.45.14-.29,1.12-.79,1.73-1.51,1.73-.47,0-.79-.68-.94-1.94l-.72-7.49c-.4-.47-1.15-.86-2.3-1.19-.4-.11-.61-.29-.61-.5,0-.32.61-.61,1.08-.61,1.19,0,2.27.07,3.2.22.83.14,1.37.29,1.62.4,3.49.04,7.27-.07,10.55-.32.29-.04,1.12-.29,1.44-.29.9,0,1.69.11,2.41.29.36.14.54.32.54.58,0,.4-.76.83-.79,1.26ZM43.34,24.98c-.04.22-.04.47,0,.79l.14,5.29c4.18.04,7.74-.04,10.01-.22.25,0,.43-.14.61-.4l.14-5.76c-3.89,0-7.77.07-10.91.29Z"/>
      <path class="cls-1" d="M93.99,4.32v19.58c0,2.84-.11,5.08-.32,6.73-.32,2.59-.86,3.85-1.66,3.85-.61,0-.9-1.33-.9-4.07v-7.42c-1.98.5-5.15,1.08-8.64,1.69-1.62.29-4.46.61-8.39,1.04-.76.07-1.4.25-1.94.54-.25.14-.58.18-.86.18-.83,0-2.34-.72-4.46-2.12-.32-.22-.5-.43-.5-.68,0-.32.29-.43.83-.4,1.8.25,3.64.32,5.47.22,3.64-.11,6.77-.36,9.36-.65,3.64-.4,7.02-.86,9.14-1.26V3.38c-.65-.86-1.69-1.55-3.28-2.05-.36-.11-.54-.29-.54-.54,0-.36.47-.54,1.44-.54,1.33,0,2.84.29,4.57.86.58.18.86.54.86,1.04,0,.43-.18,1.58-.18,2.16ZM77.11,5c.29-.22.43-.4.43-.61,0-.25-.14-.47-.58-.72-.25-.18-.4-.32-.4-.47,0-.29.18-.5.76-.5.79,0,1.58.18,2.3.61.25.14.47.43.47.68,0,.18-.22.54-.61,1.12,3.89.58,6.37,3.28,6.37,6.66,0,3.82-3.13,6.73-7.95,6.73s-8.06-2.92-8.06-6.73c0-3.6,2.92-6.48,7.27-6.77ZM77.9,16.27c3.06,0,5.15-1.98,5.15-4.46s-2.09-4.46-5.15-4.46-5.11,2.05-5.11,4.46,2.05,4.46,5.11,4.46Z"/>
      <path class="cls-1" d="M125.82,7.99c-.61,1.8-1.44,3.67-2.45,5.47l2.34,2.38c.76.79,1.69,1.48,2.77,1.84.5.18.9.54,1.22,1.04,1.15,1.44,1.66,2.66,1.73,3.56,0,.72-.29,1.08-.83,1.08-.43,0-.9-.22-1.44-.83l-6.73-7.49c-.4.65-.86,1.3-1.33,1.94-2.09,2.81-4.9,5.22-7.6,7.09-.25.18-.5.29-.79.29-.25,0-.36-.14-.36-.4,0-.22.14-.47.47-.76,1.94-1.87,4.14-4.28,5.94-7.34,1.73-2.84,2.95-5.8,3.6-8.06-.22-.76-.94-1.48-2.23-2.05-.4-.18-.58-.36-.58-.58,0-.32.32-.47,1.01-.47.25,0,.5.04.76.07,1.55.25,2.88.76,4.1,1.4.4.22.61.5.61.9,0,.18-.07.47-.22.9ZM138.81,4.32v19.58c0,2.84-.11,5.08-.32,6.73-.32,2.59-.9,3.85-1.66,3.85-.61,0-.9-1.33-.9-4.07V3.38c-.65-.86-1.69-1.55-3.28-2.05-.36-.11-.58-.29-.58-.54,0-.36.5-.54,1.48-.54,1.33,0,2.84.29,4.57.86.58.18.86.54.86,1.04,0,.47-.18,1.69-.18,2.16Z"/>
      <path class="cls-1" d="M162.61,5.69c-.14.11-.36.29-.58.54-1.04,2.02-2.34,3.96-3.89,5.8l1.62,1.4c.61.54,1.33.94,2.09,1.19.61.18,1.04.43,1.37.76.68.76,1.22,1.48,1.55,2.23.11.25.18.58.18.9,0,.61-.29.9-.9.9-.32,0-.76-.25-1.3-.72l-5.76-5.29c-2.99,3.2-6.73,5.98-11.05,7.96-.22.11-.4.14-.58.14-.25,0-.4-.14-.4-.43,0-.18.14-.36.43-.54,2.48-1.69,5.08-3.78,7.52-6.41,2.52-2.7,4.57-5.83,5.69-8.14-1.62,0-4.14.07-6.12.25-.72.04-1.26.22-1.69.5-.29.14-.5.22-.68.22s-.4-.04-.61-.11c-.97-.36-1.87-.83-2.81-1.4-.32-.18-.47-.4-.47-.61,0-.29.18-.4.58-.36,1.33.18,2.63.29,3.89.29,2.45,0,5.47-.14,7.7-.32.43-.04.72-.07.94-.18.43-.18.72-.25.9-.25.58,0,1.26.11,2.16.36.47.14.72.36.72.58,0,.18-.18.43-.5.76ZM170.67,23.83l-.14,4.54c-.04.83-.11,1.76-.25,2.81-.32,2.16-.9,3.24-1.66,3.24-.65,0-1.01-1.04-1.01-3.2v-7.27c-2.74,0-5.65.07-8.68.25-1.51.07-2.7.32-3.49.76-.25.14-.54.22-.72.22-.32,0-1.01-.25-2.09-.76-1.8-.9-2.52-1.37-2.52-1.69s.25-.47.79-.36c1.37.22,2.95.32,4.72.32,3.49,0,7.2-.14,11.12-.4.4-.04,1.44-.4,1.87-.4.47,0,1.04.14,1.8.32.47.11.72.32.72.61,0,.18-.14.5-.47,1.01ZM170.63,4.32v7.52c.9,0,1.48-.11,1.84-.43.32-.29.68-.47,1.04-.61.97-.25,2.05-.25,3.17.07.58.18.86.54.86,1.08,0,.83-.54,1.22-1.55,1.22-1.87.04-3.67.11-5.36.14v.94c0,2.09-.11,3.67-.32,4.75-.32,1.58-.86,2.34-1.58,2.34-.61,0-.97-.94-.97-2.81V3.42c-.61-.9-1.66-1.58-3.24-2.09-.4-.11-.58-.29-.58-.5,0-.36.5-.54,1.48-.54,1.4,0,2.92.29,4.57.83.58.18.86.54.86,1.04,0,.43-.22,1.58-.22,2.16Z"/>
      <path class="cls-1" d="M204.51,4.32v11.09c.9,0,1.44-.11,1.8-.43.32-.25.68-.43,1.04-.58.97-.25,2.05-.25,3.17.04.58.22.86.58.86,1.12,0,.79-.5,1.19-1.55,1.22-1.87.04-3.64.07-5.33.11v7.06c0,2.77-.11,5-.32,6.7-.32,2.59-.9,3.85-1.66,3.85-.58,0-.86-1.33-.86-4.07v-7.81c-2.95.68-5.4,1.3-7.42,1.62-2.05.36-4.72.76-7.96,1.12-.76.11-1.37.25-1.94.54-.25.14-.54.22-.83.22-.25,0-.43-.07-.65-.14-1.19-.4-2.45-1.12-3.78-1.98-.32-.25-.5-.47-.5-.72,0-.32.29-.43.86-.32,1.8.22,3.6.29,5.4.18.76-.04,1.55-.04,2.34-.11l-.25-7.13c-.5-.61-1.3-1.12-2.45-1.48-.36-.11-.54-.32-.54-.54,0-.36.36-.54,1.15-.54,1.26,0,2.59.18,3.96.5.72.18,1.04.65.94,1.3-.04.25-.11.68-.18,1.3l-.11,6.41c1.3-.11,2.63-.25,4-.4,3.02-.4,5.69-.83,7.96-1.3V3.38c-.65-.86-1.73-1.55-3.31-2.05-.36-.11-.58-.29-.58-.54,0-.36.54-.54,1.51-.54,1.33,0,2.84.29,4.54.86.58.18.86.54.86,1.04,0,.43-.18,1.58-.18,2.16ZM197.78,6.8c-.22,1.62-.54,3.42-.94,5.22-.5,2.16-1.08,4.43-1.84,5.98-.18.4-.36.61-.61.61-.32,0-.54-.18-.54-.54,0-.14,0-.32.04-.54.14-1.44.29-3.24.36-5.8.04-1.66.07-3.28.04-4.72-2.34-.04-5.04.11-6.77.29-1.19.11-2.12.32-2.66.65-.25.11-.47.22-.65.22-.29,0-.5-.07-.76-.18-1.19-.47-2.27-1.01-3.13-1.62-.4-.29-.58-.5-.58-.68,0-.32.25-.43.83-.36,1.22.22,2.74.32,4.54.32,2.77,0,6.05-.14,8.39-.29.61-.04,1.58-.47,1.91-.47.86,0,1.62.11,2.34.32.47.14.72.36.72.61,0,.18-.22.54-.68.97Z"/>
      <path class="cls-1" d="M238.39,5c-.32,1.58-.83,3.38-1.22,4.75-.65,2.2-1.4,3.89-2.23,5.33,3.53-.07,7.56-.18,11.73-.36,0-.07,0-.11.04-.18.29-1.15.58-2.99.79-5.18.14-1.3.25-3.02.18-4.46-.83,0-1.51.04-2.52.11-.43.04-1.66.65-2.09.65-.18,0-.4-.07-.72-.18-.76-.32-1.48-.72-2.2-1.22-.32-.25-.5-.47-.5-.65,0-.29.22-.4.65-.32.9.11,1.91.18,3.13.18.61,0,2.02-.07,3.56-.22.47-.04.76-.11.9-.22.36-.14.65-.22.9-.22.47,0,1.19.11,2.2.32.43.11.65.32.65.65s-.36.72-.79,1.01c-.25,1.69-.61,3.31-.97,4.57-.54,2.02-1.15,3.85-1.8,5.29,1.3-.11,2.16-.25,2.66-.47.61-.25,1.04-.43,1.33-.43,1.08,0,2.12.14,3.1.4.68.18,1.08.58,1.08,1.15,0,.86-.68,1.22-1.94,1.15-1.58-.11-2.99-.18-4.21-.18-6.52,0-12.78.18-17.31.5-1.51.11-2.63.36-3.38.72-.32.14-.58.22-.76.22-.22,0-.43-.04-.65-.11-1.3-.47-2.56-1.08-3.74-1.84-.36-.29-.54-.5-.54-.76,0-.29.25-.4.83-.29,1.66.25,3.42.4,5.29.4h3.82c0-.11.04-.25.07-.36.43-1.37.79-3.38,1.12-5.33.25-1.48.36-3.13.43-4.32-1.01,0-2.23.04-2.92.14-.58.07-1.08.22-1.48.43-.14.11-.36.18-.61.18-.18,0-.43-.07-.72-.18-.97-.47-1.73-.86-2.23-1.19-.32-.25-.47-.47-.47-.68,0-.29.22-.4.65-.32.86.11,1.91.18,3.13.18.94,0,2.45-.07,3.82-.18.47-.04,1.48-.47,1.8-.47.68,0,1.44.11,2.16.36.47.11.68.29.68.61,0,.25-.22.61-.68,1.01ZM248.9,32.61c-3.82,0-8.75.04-13.57.07-1.37.04-2.34-.14-2.88-.54-.68-.47-1.01-1.37-1.01-2.66v-6.62c-.32-.5-1.19-.94-2.7-1.3-.43-.11-.65-.25-.65-.5,0-.36.79-.72,1.37-.72,1.22,0,2.45.07,3.64.25.5.07.86.18,1.15.36,3.71,0,6.55-.04,7.77-.14,1.01-.07,1.73-.22,2.16-.47.76-.29,1.22-.43,1.4-.43.79-.11,1.76-.07,2.88.04.83.18,1.22.54,1.22,1.15,0,.79-.54,1.19-1.62,1.19-5.51,0-10.29.07-13.64.25-.04.22-.04.29-.04.86v2.56c3.28,0,5.94-.04,7.31-.11.9-.04,1.69-.22,2.34-.5.54-.25,1.04-.4,1.48-.43,1.37,0,2.23.04,2.7.11.79.18,1.15.54,1.15,1.04,0,.79-.5,1.19-1.58,1.19-4.79.04-9.43.11-13.39.18v2.63c0,.72.14,1.01,1.01,1.04,2.02.11,4.5.07,6.33-.04,1.58-.11,2.63-.29,3.2-.58.54-.25.97-.4,1.37-.43,1.4,0,2.45.07,3.06.18.72.14,1.12.5,1.12,1.12,0,.86-.54,1.26-1.58,1.26Z"/>
    </g>
  </g>
</svg>