<?xml version="1.0" encoding="UTF-8"?>
<svg id="_레이어_2" data-name="레이어 2" xmlns="http://www.w3.org/2000/svg" viewBox="0 0 34.29 34.29">
  <defs>
    <style>
      .cls-1 {
        fill: #fefefe;
      }

      .cls-2 {
        fill: #fff;
      }

      .cls-3 {
        fill: #2a1412;
      }

      .cls-4 {
        fill: #1a2a7f;
      }
    </style>
  </defs>
  <g id="_레이어_1-2" data-name="레이어 1">
    <g>
      <g>
        <circle class="cls-4" cx="17.14" cy="17.14" r="16"/>
        <path class="cls-3" d="M17.14,34.29C7.69,34.29,0,26.6,0,17.14S7.69,0,17.14,0s17.14,7.69,17.14,17.14-7.69,17.14-17.14,17.14ZM17.14,2.28c-8.2,0-14.86,6.67-14.86,14.86s6.67,14.86,14.86,14.86,14.86-6.67,14.86-14.86S25.34,2.28,17.14,2.28Z"/>
      </g>
      <path class="cls-2" d="M16.96,2.54c-7.93.01-14.44,6.61-14.41,14.59.03,8.29,6.4,14.62,14.71,14.63,7.88,0,14.5-6.66,14.48-14.58-.02-8.19-6.54-14.65-14.77-14.64ZM17.16,29.51c-6.66.05-12.39-5.66-12.39-12.37,0-6.69,5.73-12.42,12.39-12.36,6.68.05,12.21,5.59,12.27,12.27.05,6.75-5.51,12.4-12.27,12.45Z"/>
      <g id="QRkMjC.tif">
        <g>
          <path class="cls-1" d="M22.9,22.83c-1.21,4.38-5.35,4.94-8.32,3.51-1.83-.88-2.48-2.59-2.54-4.47-.1-2.9-.03-5.81-.03-8.72,0-.11.07-.22.12-.39.65,0,1.2,0,1.75,0,.12,0,.23.04.45.08,0,.83,0,1.64,0,2.46,0,2.17-.03,4.34.04,6.52.05,1.68,1,2.84,2.37,3.07,1.7.29,2.89-.34,3.64-1.93.33-.7.51-1.44.56-2.21.15-2.52,0-5.01-.97-7.39-.05-.14-.08-.29-.17-.6.73,0,1.38-.02,2.03,0,.34.01.41.34.5.59,1.06,3.1,1.47,6.27.59,9.46Z"/>
          <path class="cls-1" d="M21.46,8.59c.03.74-.61,1.4-1.37,1.42-.77.03-1.43-.56-1.48-1.31-.05-.77.61-1.45,1.41-1.46.77,0,1.42.59,1.44,1.34Z"/>
          <path class="cls-1" d="M15.83,8.66c-.01.8-.6,1.38-1.41,1.36-.77-.02-1.38-.65-1.36-1.42.02-.77.64-1.36,1.43-1.35.81.01,1.36.59,1.34,1.41Z"/>
        </g>
      </g>
    </g>
  </g>
</svg>