<?xml version="1.0" encoding="UTF-8"?>
<svg id="_레이어_2" data-name="레이어 2" xmlns="http://www.w3.org/2000/svg" viewBox="0 0 34.29 34.29">
  <defs>
    <style>
      .cls-1 {
        fill: #fefefe;
      }

      .cls-2 {
        fill: #fff;
      }

      .cls-3 {
        fill: #2a1412;
      }

      .cls-4 {
        fill: #1a2a7f;
      }
    </style>
  </defs>
  <g id="_레이어_1-2" data-name="레이어 1">
    <g>
      <g>
        <circle class="cls-4" cx="17.14" cy="17.14" r="16"/>
        <path class="cls-3" d="M17.14,34.29C7.69,34.29,0,26.6,0,17.14S7.69,0,17.14,0s17.14,7.69,17.14,17.14-7.69,17.14-17.14,17.14ZM17.14,2.28c-8.2,0-14.86,6.67-14.86,14.86s6.67,14.86,14.86,14.86,14.86-6.67,14.86-14.86S25.34,2.28,17.14,2.28Z"/>
      </g>
      <path class="cls-2" d="M16.96,2.54c-7.93.01-14.44,6.61-14.41,14.59.03,8.29,6.4,14.62,14.71,14.63,7.88,0,14.5-6.66,14.48-14.58-.02-8.19-6.54-14.65-14.77-14.64ZM17.16,29.51c-6.66.05-12.39-5.66-12.39-12.37,0-6.69,5.73-12.42,12.39-12.36,6.68.05,12.21,5.59,12.27,12.27.05,6.75-5.51,12.4-12.27,12.45Z"/>
      <g id="jmbD8M.tif">
        <g>
          <path class="cls-1" d="M11.62,9.36c-.01-1.98-.16-1.7,2.1-1.7,1.81,0,1.57-.19,1.59,1.82-.03,2.13.26,1.87-1.78,1.86-2.24,0-1.9.31-1.91-1.98Z"/>
          <path class="cls-1" d="M18.76,9.31c-.02-1.66,0-1.67,2.02-1.65,1.95.02,1.65-.28,1.65,2.11,0,1.83.23,1.55-1.81,1.57-2.18-.04-1.84.3-1.86-2.03Z"/>
          <path class="cls-1" d="M28.09,16.63c-.14,4.44-3.82,8.61-8.58,9.73-.8.19-1.61.31-2.23.27-5.91,0-10.86-4.48-11.3-10.1-.04-.45-.23-1.12.59-1.03.6.07,1.44-.51,1.64.8.77,5.04,4.39,8.16,9.19,8.09,4.27-.06,8.18-3.66,8.44-7.92.08-1.23.79-.95,1.48-1,.96-.07.78.59.76,1.15Z"/>
          <path class="cls-1" d="M28.09,16.63c-.14,4.44-3.82,8.61-8.58,9.73-.8.19-1.61.31-2.23.27-5.91,0-10.86-4.48-11.3-10.1-.04-.45-.23-1.12.59-1.03.6.07,1.44-.51,1.64.8.77,5.04,4.39,8.16,9.19,8.09,4.27-.06,8.18-3.66,8.44-7.92.08-1.23.79-.95,1.48-1,.96-.07.78.59.76,1.15Z"/>
          <path class="cls-1" d="M13.54,11.34c-2.24,0-1.9.31-1.91-1.98-.01-1.98-.16-1.7,2.1-1.7,1.81,0,1.57-.19,1.59,1.82-.03,2.13.26,1.87-1.78,1.86Z"/>
          <path class="cls-1" d="M22.44,9.77c0,1.83.23,1.55-1.81,1.57-2.18-.04-1.84.3-1.86-2.03-.02-1.66,0-1.67,2.02-1.65,1.95.02,1.65-.28,1.65,2.11Z"/>
        </g>
      </g>
    </g>
  </g>
</svg>