<?xml version="1.0" encoding="UTF-8"?>
<svg id="_레이어_2" data-name="레이어 2" xmlns="http://www.w3.org/2000/svg" viewBox="0 0 34.29 34.29">
  <defs>
    <style>
      .cls-1 {
        fill: #fff;
      }

      .cls-2 {
        fill: #2a1412;
      }

      .cls-3 {
        fill: #1a2a7f;
      }
    </style>
  </defs>
  <g id="_레이어_1-2" data-name="레이어 1">
    <g>
      <g>
        <circle class="cls-3" cx="17.14" cy="17.14" r="16"/>
        <path class="cls-2" d="M17.14,34.29C7.69,34.29,0,26.6,0,17.14S7.69,0,17.14,0s17.14,7.69,17.14,17.14-7.69,17.14-17.14,17.14ZM17.14,2.28c-8.2,0-14.86,6.67-14.86,14.86s6.67,14.86,14.86,14.86,14.86-6.67,14.86-14.86S25.34,2.28,17.14,2.28Z"/>
      </g>
      <path class="cls-1" d="M16.96,2.54c-7.93.01-14.44,6.61-14.41,14.59.03,8.29,6.4,14.62,14.71,14.63,7.88,0,14.5-6.66,14.48-14.58-.02-8.19-6.54-14.65-14.77-14.64ZM17.16,29.51c-6.66.05-12.39-5.66-12.39-12.37,0-6.69,5.73-12.42,12.39-12.36,6.68.05,12.21,5.59,12.27,12.27.05,6.75-5.51,12.4-12.27,12.45Z"/>
      <g>
        <path class="cls-1" d="M25.54,19.93c-.13.53-.57.94-1.07,1.23-2.23,1.27-5.12.45-6.25-1.85-.3-.6-.74-.4-1.14-.42-.38-.01-.76-.13-1.02.43-1.03,2.23-3.26,3.01-5.66,2.07-.86-.33-1.56-.87-1.79-1.75-.28-1.1-1.12-.84-1.74-.72-.8.15-.17.81-.13,1.17.08.71.46,1.35.9,1.95,1.95,2.68,7.17,2.22,8.84.37.33-.36.53-.71,1.09-.13,1.9,1.97,4.28,1.92,6.68,1.26,2.27-.62,3.19-2.37,3.5-4.59-.96-.14-1.87-.36-2.2.97Z"/>
        <path class="cls-1" d="M21.71,14.76c1.24,0,2.29-1.01,2.29-2.21,0-1.18-1.07-2.22-2.3-2.22-1.23,0-2.27,1.02-2.26,2.23,0,1.25.99,2.2,2.27,2.2Z"/>
        <path class="cls-1" d="M12.87,14.9c1.19-.02,2.21-1.09,2.2-2.3,0-1.21-1.07-2.26-2.26-2.24-1.21.02-2.2,1.06-2.19,2.3.01,1.23,1.05,2.27,2.24,2.25Z"/>
      </g>
    </g>
  </g>
</svg>