<?xml version="1.0" encoding="UTF-8"?>
<svg id="_레이어_2" data-name="레이어 2" xmlns="http://www.w3.org/2000/svg" viewBox="0 0 416.39 399.91">
  <defs>
    <style>
      .cls-1 {
        fill: #2a1512;
      }

      .cls-2 {
        fill: #fff;
      }

      .cls-3 {
        fill: #1a2092;
      }

      .cls-4 {
        fill: none;
      }

      .cls-5 {
        fill: #ff0;
      }
    </style>
  </defs>
  <g id="_레이어_1-2" data-name="레이어 1">
    <g>
      <polygon class="cls-5" points="380.74 399.91 331.46 196.94 331.34 196.97 247.04 99.21 65.91 143.92 35.73 265.9 35.65 265.92 35.69 266.07 35.67 266.12 35.7 266.11 67.19 399.69 380.74 399.91"/>
      <rect class="cls-4" width="416.39" height="399.91"/>
      <g>
        <circle class="cls-3" cx="152.03" cy="119.39" r="13.8"/>
        <path class="cls-1" d="M152.03,134.17c-8.15,0-14.78-6.63-14.78-14.78s6.63-14.78,14.78-14.78,14.78,6.63,14.78,14.78-6.63,14.78-14.78,14.78ZM152.03,106.57c-7.07,0-12.81,5.75-12.81,12.81s5.75,12.81,12.81,12.81,12.81-5.75,12.81-12.81-5.75-12.81-12.81-12.81Z"/>
      </g>
      <path class="cls-2" d="M151.88,106.79c-6.83.01-12.45,5.7-12.43,12.58.03,7.14,5.52,12.6,12.68,12.61,6.79,0,12.5-5.75,12.48-12.57-.02-7.06-5.64-12.63-12.74-12.62ZM152.05,130.05c-5.74.05-10.68-4.88-10.68-10.66,0-5.77,4.94-10.7,10.68-10.66,5.76.04,10.53,4.82,10.58,10.58.05,5.82-4.75,10.69-10.58,10.74Z"/>
      <g>
        <path class="cls-2" d="M159.28,121.79c-.11.45-.49.81-.92,1.06-1.92,1.1-4.41.39-5.39-1.59-.25-.52-.64-.35-.98-.36-.32-.01-.66-.11-.88.37-.89,1.92-2.81,2.59-4.88,1.79-.74-.29-1.35-.75-1.54-1.51-.24-.95-.97-.72-1.5-.62-.69.13-.15.7-.12,1.01.07.62.4,1.17.77,1.68,1.68,2.31,6.18,1.91,7.62.32.28-.31.46-.61.94-.11,1.64,1.69,3.69,1.66,5.76,1.09,1.95-.54,2.75-2.04,3.01-3.96-.83-.12-1.61-.31-1.89.83Z"/>
        <path class="cls-2" d="M155.97,117.33c1.07,0,1.97-.87,1.98-1.9,0-1.02-.93-1.91-1.98-1.92-1.06,0-1.96.88-1.95,1.92,0,1.08.85,1.9,1.96,1.9Z"/>
        <path class="cls-2" d="M148.35,117.45c1.03-.02,1.91-.94,1.9-1.99,0-1.04-.92-1.95-1.95-1.93-1.04.02-1.9.92-1.89,1.98.01,1.06.91,1.95,1.93,1.94Z"/>
      </g>
    </g>
  </g>
</svg>