<?xml version="1.0" encoding="UTF-8"?>
<svg id="_레이어_2" data-name="레이어 2" xmlns="http://www.w3.org/2000/svg" viewBox="0 0 416.39 399.91">
  <defs>
    <style>
      .cls-1 {
        fill: #2a1512;
      }

      .cls-2 {
        fill: #fcfcfc;
      }

      .cls-3 {
        fill: #fff;
      }

      .cls-4 {
        fill: #1a2092;
      }

      .cls-5 {
        fill: none;
      }

      .cls-6 {
        fill: #ff0;
      }
    </style>
  </defs>
  <g id="_레이어_1-2" data-name="레이어 1">
    <g>
      <polygon class="cls-6" points="381.5 399.91 317.88 205.43 317.74 205.43 223.26 14.82 176.75 14.82 88.71 205.43 88.85 205.43 34.89 399.91 381.5 399.91"/>
      <rect class="cls-5" width="416.39" height="399.91"/>
      <g>
        <circle class="cls-4" cx="199.98" cy="14.82" r="13.8"/>
        <path class="cls-1" d="M199.98,29.6c-8.15,0-14.78-6.63-14.78-14.78S191.83.04,199.98.04s14.78,6.63,14.78,14.78-6.63,14.78-14.78,14.78ZM199.98,2c-7.07,0-12.81,5.75-12.81,12.81s5.75,12.81,12.81,12.81,12.81-5.75,12.81-12.81-5.75-12.81-12.81-12.81Z"/>
      </g>
      <path class="cls-3" d="M199.82,2.22c-6.83.01-12.45,5.7-12.43,12.58.03,7.14,5.52,12.6,12.68,12.61,6.79,0,12.5-5.75,12.48-12.57-.02-7.06-5.64-12.63-12.74-12.62ZM200,25.48c-5.74.05-10.68-4.88-10.68-10.66,0-5.77,4.94-10.7,10.68-10.66,5.76.04,10.53,4.82,10.58,10.58.05,5.82-4.75,10.69-10.58,10.74Z"/>
      <g id="v6cEQ2.tif">
        <g>
          <path class="cls-2" d="M207.49,15.59c.02,2.43-.86,4.4-2.77,5.84-2.37,1.79-4.95,2.34-7.75,1.04-2.89-1.34-4.47-3.57-4.5-6.86.14-.03.2-.05.27-.05,1.17-.05,1.18-.05,1.32,1.11.42,3.55,5.15,6.55,9.12,3.99,1.84-1.18,2.76-2.85,2.82-5.03.49-.11.95-.07,1.48-.03Z"/>
          <rect class="cls-2" x="196.66" y="7.45" width="1.56" height="5.41"/>
          <rect class="cls-2" x="201.69" y="7.42" width="1.57" height="5.41"/>
        </g>
      </g>
    </g>
  </g>
</svg>