<?xml version="1.0" encoding="UTF-8"?>
<svg id="_레이어_2" data-name="레이어 2" xmlns="http://www.w3.org/2000/svg" viewBox="0 0 416.39 399.91">
  <defs>
    <style>
      .cls-1 {
        fill: #2a1512;
      }

      .cls-2 {
        fill: #fcfcfc;
      }

      .cls-3 {
        fill: #fff;
      }

      .cls-4 {
        fill: #1a2092;
      }

      .cls-5 {
        fill: none;
      }

      .cls-6 {
        fill: #040404;
      }

      .cls-7 {
        fill: #ff0;
      }
    </style>
  </defs>
  <g id="_레이어_1-2" data-name="레이어 1">
    <g>
      <polygon class="cls-7" points="374.05 242.57 374.19 241.93 373.72 241.88 320.95 131.36 109.61 105.52 42.8 201.22 42.2 201.15 42.2 399.91 338.84 399.91 373.99 242.84 374.19 242.87 374.05 242.57"/>
      <rect class="cls-5" width="416.39" height="399.91"/>
      <g>
        <circle class="cls-4" cx="214.15" cy="119.3" r="13.8"/>
        <path class="cls-1" d="M214.15,134.08c-8.15,0-14.78-6.63-14.78-14.78s6.63-14.78,14.78-14.78,14.78,6.63,14.78,14.78-6.63,14.78-14.78,14.78ZM214.15,106.49c-7.07,0-12.81,5.75-12.81,12.81s5.75,12.81,12.81,12.81,12.81-5.75,12.81-12.81-5.75-12.81-12.81-12.81Z"/>
      </g>
      <path class="cls-3" d="M214,106.71c-6.83.01-12.45,5.7-12.43,12.58.03,7.14,5.52,12.6,12.68,12.61,6.79,0,12.5-5.75,12.48-12.57-.02-7.06-5.64-12.63-12.74-12.62ZM214.17,129.96c-5.74.05-10.68-4.88-10.68-10.66,0-5.77,4.94-10.7,10.68-10.66,5.76.04,10.53,4.82,10.58,10.58.05,5.82-4.75,10.69-10.58,10.74Z"/>
      <g id="_2kdUVV.tif" data-name="2kdUVV.tif">
        <g>
          <path class="cls-6" d="M219.25,115.46c0,.13-.03.25-.04.36.03-.11.04-.23.05-.36v-.13s0,.09,0,.13ZM208.04,119.33c-.19,0-.41.07-.66.16.25-.09.47-.16.66-.16Z"/>
          <path class="cls-2" d="M221,119.25c-.32,3.72-3.03,6.21-6.85,6.27-3.78.07-6.53-2.2-7.04-5.92.09-.03.18-.08.27-.1.25-.09.47-.16.66-.16.34,0,.61.21.83.84.7,2.06,2.28,3.08,4.57,3.2.16,0,.31.02.47.02.53,0,1.02-.04,1.48-.12.46-.08.88-.2,1.27-.35.24-.1.47-.21.69-.34.93-.56,1.6-1.41,1.94-2.54.35-1.21.9-1.05,1.72-.78Z"/>
          <path class="cls-2" d="M212.6,115.61c-.16.97-.75,1.57-1.9,1.5-1.16-.07-1.72-.82-1.65-1.86.08-1.06.8-1.76,1.9-1.66,1.06.09,1.67.78,1.65,2.03Z"/>
          <path class="cls-2" d="M219.26,115.33v.13c0,.13-.03.25-.05.36,0,.05-.03.11-.04.16-.05.16-.12.31-.21.44-.03.04-.07.09-.1.12-.35.4-.95.59-1.86.55-.72-.08-1.29-.7-1.26-1.82.05-1.14.78-1.74,1.84-1.7.16,0,.32.03.47.08.08.02.16.04.23.08.16.06.3.15.42.26.03.03.07.06.1.09.08.08.14.16.2.25.18.28.27.61.27.99Z"/>
        </g>
      </g>
    </g>
  </g>
</svg>