<?xml version="1.0" encoding="UTF-8"?>
<svg id="_레이어_2" data-name="레이어 2" xmlns="http://www.w3.org/2000/svg" viewBox="0 0 416.39 399.91">
  <defs>
    <style>
      .cls-1 {
        fill: #2a1512;
      }

      .cls-2 {
        fill: #fcfcfc;
      }

      .cls-3 {
        fill: #fff;
      }

      .cls-4 {
        fill: #1a2092;
      }

      .cls-5 {
        fill: none;
      }

      .cls-6 {
        fill: #ff0;
      }
    </style>
  </defs>
  <g id="_레이어_1-2" data-name="레이어 1">
    <g>
      <polygon class="cls-6" points="345.54 169.6 281.06 64.05 83.8 82.42 60.54 195.98 69.64 399.12 355.85 399.91 345.54 169.6"/>
      <rect class="cls-5" width="416.39" height="399.91"/>
      <g>
        <circle class="cls-4" cx="182.67" cy="73.14" r="13.8"/>
        <path class="cls-1" d="M182.67,87.92c-8.15,0-14.78-6.63-14.78-14.78s6.63-14.78,14.78-14.78,14.78,6.63,14.78,14.78-6.63,14.78-14.78,14.78ZM182.67,60.32c-7.07,0-12.81,5.75-12.81,12.81s5.75,12.81,12.81,12.81,12.81-5.75,12.81-12.81-5.75-12.81-12.81-12.81Z"/>
      </g>
      <path class="cls-3" d="M182.51,60.54c-6.83.01-12.45,5.7-12.43,12.58.03,7.14,5.52,12.6,12.68,12.61,6.79,0,12.5-5.75,12.48-12.57-.02-7.06-5.64-12.63-12.74-12.62ZM182.69,83.8c-5.74.05-10.68-4.88-10.68-10.66,0-5.77,4.94-10.7,10.68-10.66,5.76.04,10.53,4.82,10.58,10.58.05,5.82-4.75,10.69-10.58,10.74Z"/>
      <g id="jmbD8M.tif">
        <g>
          <path class="cls-2" d="M177.91,66.43c-.01-1.71-.14-1.46,1.81-1.47,1.56,0,1.35-.17,1.37,1.57-.03,1.84.23,1.61-1.54,1.61-1.93,0-1.63.27-1.65-1.71Z"/>
          <path class="cls-2" d="M184.06,66.39c-.02-1.43,0-1.44,1.75-1.43,1.68.02,1.42-.24,1.42,1.82,0,1.58.19,1.33-1.56,1.36-1.88-.03-1.58.26-1.6-1.75Z"/>
          <path class="cls-2" d="M192.11,72.69c-.12,3.83-3.29,7.42-7.4,8.39-.69.16-1.39.27-1.92.23-5.1,0-9.36-3.87-9.74-8.7-.03-.39-.19-.96.51-.89.52.06,1.24-.44,1.42.69.67,4.34,3.78,7.03,7.92,6.98,3.68-.05,7.05-3.16,7.28-6.83.07-1.06.68-.82,1.28-.86.83-.06.67.51.66.99Z"/>
          <path class="cls-2" d="M192.11,72.69c-.12,3.83-3.29,7.42-7.4,8.39-.69.16-1.39.27-1.92.23-5.1,0-9.36-3.87-9.74-8.7-.03-.39-.19-.96.51-.89.52.06,1.24-.44,1.42.69.67,4.34,3.78,7.03,7.92,6.98,3.68-.05,7.05-3.16,7.28-6.83.07-1.06.68-.82,1.28-.86.83-.06.67.51.66.99Z"/>
          <path class="cls-2" d="M179.56,68.13c-1.93,0-1.63.27-1.65-1.71-.01-1.71-.14-1.46,1.81-1.47,1.56,0,1.35-.17,1.37,1.57-.03,1.84.23,1.61-1.54,1.61Z"/>
          <path class="cls-2" d="M187.23,66.78c0,1.58.19,1.33-1.56,1.36-1.88-.03-1.58.26-1.6-1.75-.02-1.43,0-1.44,1.75-1.43,1.68.02,1.42-.24,1.42,1.82Z"/>
        </g>
      </g>
    </g>
  </g>
</svg>