<?xml version="1.0" encoding="UTF-8"?>
<svg id="_레이어_2" data-name="레이어 2" xmlns="http://www.w3.org/2000/svg" viewBox="0 0 174.63 34.73">
  <defs>
    <style>
      .cls-1 {
        fill: #1d287b;
        stroke: #1d287b;
        stroke-miterlimit: 10;
        stroke-width: .5px;
      }
    </style>
  </defs>
  <g id="_레이어_1-2" data-name="레이어 1">
    <g>
      <path class="cls-1" d="M10.29,7.7c4.03.61,6.77,3.64,6.77,7.34,0,.9-.18,1.73-.47,2.52.76.07,1.58.11,2.45.07,1.66,0,3.13-.11,4.39-.22v-6.66c-.43,0-.79.04-1.12.04-1.22.11-2.05.29-2.52.54-.25.14-.47.22-.61.22-.68,0-1.84-.5-3.35-1.55-.25-.18-.4-.36-.4-.54,0-.25.25-.32.76-.29.97.11,2.02.18,3.17.14,1.37,0,2.74-.07,4.07-.22V3.38c-.61-.86-1.69-1.55-3.24-2.05-.4-.11-.58-.29-.58-.54,0-.36.5-.54,1.48-.54,1.33,0,2.84.29,4.57.86.58.18.86.54.86,1.04,0,.43-.18,1.58-.18,2.16v19.58c0,2.84-.11,5.08-.32,6.73-.32,2.59-.9,3.85-1.66,3.85-.65,0-.94-1.33-.94-4.07v-11.41c-1.15.07-2.09.18-2.77.29-1.04.18-1.51.58-1.84.58s-.9-.22-1.76-.61c-.4-.18-.72-.36-1.01-.54-1.4,2.3-4.07,3.82-7.34,3.82C3.81,22.53.25,19.22.25,15.04c0-3.92,3.17-7.13,7.67-7.45.22-.22.4-.43.4-.65,0-.29-.14-.5-.58-.76-.25-.14-.4-.25-.4-.47,0-.25.18-.47.83-.47.61,0,1.62.22,2.23.58.32.18.5.43.5.65,0,.32-.25.76-.61,1.22ZM8.71,20.05c3.1,0,5.47-2.16,5.47-5.11s-2.38-5.08-5.47-5.08-5.44,2.12-5.44,5.08,2.34,5.11,5.44,5.11Z"/>
      <path class="cls-1" d="M63.07,19.69c-1.51-.11-2.95-.18-4.39-.18-6.84,0-13.1.14-17.35.47-.72.04-1.26.11-1.69.14-1.3.25-2.09.76-2.52.76-.18,0-.36-.04-.61-.11-1.22-.4-2.52-1.01-3.78-1.87-.36-.25-.54-.47-.54-.72,0-.29.25-.4.83-.29,1.58.25,3.35.4,5.29.4,5.08,0,11.19-.11,16.85-.36,1.87-.11,3.06-.29,3.6-.58.58-.29,1.01-.43,1.4-.43,1.33,0,2.48.14,3.46.43.72.25,1.12.65,1.12,1.19,0,.86-.58,1.26-1.66,1.15ZM57.63,14.83c-5.51.04-11.01.14-15.3.29-2.09.04-2.92-.61-2.92-2.52v-2.77c-.5-.5-1.3-.86-2.34-1.12-.4-.07-.58-.25-.58-.54,0-.32.32-.47.94-.47,1.33-.04,2.66.04,3.92.25.18,0,.83.32,1.69.32,3.71-.04,7.56-.18,10.76-.36.18,0,.32-.07.43-.25.11-.94.14-2.27.11-3.67-3.1.04-6.66.14-9.5.32-2.2.18-2.84.72-3.2.72-.25,0-.5-.04-.76-.14-1.37-.54-2.45-1.08-3.24-1.62-.25-.18-.36-.32-.36-.5,0-.36.25-.47.76-.4,1.19.22,2.48.32,3.92.36,6.05.11,10.55,0,12.31-.4.14-.04.94-.32,1.22-.32.54,0,1.26.11,2.2.32.47.11.68.32.68.58,0,.22-.25.54-.72.97-.22,1.37-.68,2.77-1.08,3.82.86.22,1.26.58,1.26,1.01,0,.47-.32.72-1.04.72-5.69.11-10.69.22-14.18.32-.04.22-.04.43-.04.61v2.38c0,.54.22.79.65.79,2.66.04,5.29-.04,7.13-.22,1.66-.14,2.77-.36,3.46-.65.54-.25,1.01-.4,1.37-.4,2.48,0,4,.04,4,1.33,0,.79-.54,1.19-1.55,1.22ZM57.38,24.87c-.32,2.12-.68,3.92-1.15,5.76.94.25,1.4.65,1.4,1.15,0,.58-.61.83-1.76.83-3.71-.04-8.06,0-12.45.14-.29,1.12-.79,1.73-1.51,1.73-.47,0-.79-.68-.94-1.94l-.72-7.49c-.4-.47-1.15-.86-2.3-1.19-.4-.11-.61-.29-.61-.5,0-.32.61-.61,1.08-.61,1.19,0,2.27.07,3.2.22.83.14,1.37.29,1.62.4,3.49.04,7.27-.07,10.55-.32.29-.04,1.12-.29,1.44-.29.9,0,1.69.11,2.41.29.36.14.54.32.54.58,0,.4-.76.83-.79,1.26ZM43.34,24.98c-.04.22-.04.47,0,.79l.14,5.29c4.18.04,7.74-.04,10.01-.22.25,0,.43-.14.61-.4l.14-5.76c-3.89,0-7.77.07-10.91.29Z"/>
      <path class="cls-1" d="M93.99,4.32v19.58c0,2.84-.11,5.08-.32,6.73-.32,2.59-.86,3.85-1.66,3.85-.61,0-.9-1.33-.9-4.07v-7.42c-1.98.5-5.15,1.08-8.64,1.69-1.62.29-4.46.61-8.39,1.04-.76.07-1.4.25-1.94.54-.25.14-.58.18-.86.18-.83,0-2.34-.72-4.46-2.12-.32-.22-.5-.43-.5-.68,0-.32.29-.43.83-.4,1.8.25,3.64.32,5.47.22,3.64-.11,6.77-.36,9.36-.65,3.64-.4,7.02-.86,9.14-1.26V3.38c-.65-.86-1.69-1.55-3.28-2.05-.36-.11-.54-.29-.54-.54,0-.36.47-.54,1.44-.54,1.33,0,2.84.29,4.57.86.58.18.86.54.86,1.04,0,.43-.18,1.58-.18,2.16ZM77.11,5c.29-.22.43-.4.43-.61,0-.25-.14-.47-.58-.72-.25-.18-.4-.32-.4-.47,0-.29.18-.5.76-.5.79,0,1.58.18,2.3.61.25.14.47.43.47.68,0,.18-.22.54-.61,1.12,3.89.58,6.37,3.28,6.37,6.66,0,3.82-3.13,6.73-7.95,6.73s-8.06-2.92-8.06-6.73c0-3.6,2.92-6.48,7.27-6.77ZM77.9,16.27c3.06,0,5.15-1.98,5.15-4.46s-2.09-4.46-5.15-4.46-5.11,2.05-5.11,4.46,2.05,4.46,5.11,4.46Z"/>
      <path class="cls-1" d="M129.74,5.25c-.11.11-.25.29-.43.61-.25.54-.5,1.08-.79,1.62.68.04,1.44.07,2.27.04,1.98-.04,3.74-.14,5.33-.29v-3.82c-.61-.9-1.73-1.58-3.31-2.05-.36-.11-.54-.29-.54-.58,0-.36.5-.54,1.51-.54,1.3,0,2.81.29,4.54.9.61.18.9.54.9,1.01,0,.4-.18,1.12-.18,2.16v7.06c0,1.66-.07,2.92-.25,3.92-.29,2.12-.86,3.2-1.69,3.2-.65,0-.97-.94-.97-2.74v-1.04c-2.84.04-4.68.22-5.36.58-.25.18-.47.25-.61.25-.83,0-1.91-.54-3.35-1.51-.25-.18-.4-.36-.4-.58,0-.25.25-.32.76-.25.97.11,2.02.14,3.17.11,2.2-.04,4.14-.14,5.79-.32v-4.1c-2.59.04-4.25.25-4.93.61-.25.14-.47.22-.61.22-.68,0-1.58-.32-2.74-1.04-3.06,4.82-8.24,8.75-14.69,11.99-.14.07-.29.11-.47.11-.29,0-.43-.14-.43-.47,0-.18.14-.36.5-.58,2.52-1.66,5.51-3.82,7.85-6.3,2.59-2.81,4.43-5.26,5.44-7.85-2.38.04-4.68.14-5.98.29-.72.11-1.3.29-1.69.5-.29.14-.5.22-.68.22-.22,0-.43-.04-.61-.11-.97-.36-1.87-.86-2.81-1.4-.32-.18-.47-.4-.47-.61,0-.25.18-.4.54-.4,1.12.18,2.41.25,3.85.25,2.99,0,5.8-.07,7.45-.25.4-.04.72-.11.9-.22.32-.18.61-.25.79-.25.4,0,1.15.07,2.23.25.47.11.68.29.68.61,0,.22-.14.47-.5.79ZM139.49,32.57c-4.28-.04-10.11,0-14.94.07-2.09.04-3.06-.83-3.06-2.74v-2.84c-.54-.58-1.26-.94-2.27-1.15-.4-.11-.58-.29-.58-.54,0-.32.29-.47.94-.47,1.26-.07,2.52.07,3.82.25.32.04.83.29,1.73.29,2.66,0,6.73-.11,9.75-.29.18,0,.36-.07.47-.25.11-1.08.14-1.87.11-3.38-2.74-.04-6.08.04-8.71.25-1.15.04-2.02.22-2.56.47-.36.18-.61.25-.83.25-.25,0-.5-.04-.76-.14-1.08-.43-2.05-1.01-2.99-1.62-.25-.18-.36-.36-.36-.54,0-.25.25-.4.76-.29,1.15.18,2.45.29,3.89.32,3.49.07,7.67-.04,11.05-.29.36,0,1.26-.43,1.66-.43.68,0,1.48.11,2.41.4.32.11.47.25.47.47,0,.32-.76.79-.79,1.08-.4,1.19-.76,2.38-1.15,3.46.94.25,1.4.61,1.4,1.04,0,.47-.36.68-1.04.68-4.68.04-9.9.18-13.25.32-.04.18-.07.43-.07.72v2.63c0,.5.25.76.72.76,1.98.04,5.11.04,6.91-.07,1.69-.07,2.88-.29,3.64-.61.54-.32.97-.47,1.33-.47,2.16,0,3.85.22,3.85,1.37,0,.86-.54,1.3-1.55,1.3Z"/>
      <path class="cls-1" d="M164.62,17.71c-.4,0-.79-.18-1.3-.65l-6.59-5.94c-2.27,3.28-5.26,6.08-8.89,8.17-.36.25-.65.36-.9.36s-.36-.11-.36-.4c0-.22.22-.5.65-.83,1.76-1.44,3.56-3.46,5.18-5.72,1.8-2.41,3.06-4.9,3.78-7.02-.14-.65-.86-1.33-2.2-1.94-.4-.18-.58-.4-.58-.58,0-.29.32-.43.97-.43.29,0,.54,0,.79.04,1.94.32,3.35.83,4.18,1.37.32.18.47.47.47.79s-.07.65-.22.9c-.58,1.33-1.22,2.63-1.94,3.85l2.09,1.8c.47.4,1.04.65,1.8.9.83.29,1.26.43,1.44.61.83.72,1.73,1.73,2.2,2.88.14.36.25.65.25.9,0,.65-.25.94-.83.94ZM172.83,32.65c-4.68-.04-9.72,0-14.61.07-2.09.04-3.1-.83-3.1-2.74v-2.74c-.5-.5-1.22-.9-2.23-1.15-.4-.07-.58-.25-.58-.5,0-.32.29-.47.9-.47,1.3-.04,2.56.04,3.82.25.11.04.32.07.68.14.25.11.58.14,1.04.14,2.92,0,6.3-.11,9.72-.29.18,0,.36-.07.47-.25.11-.86.14-1.87.11-3.42-3.53,0-6.59.07-8.64.25-1.22.07-2.09.22-2.56.47-.4.18-.65.25-.83.25-.22,0-.47-.04-.76-.14-.97-.32-1.94-.86-2.99-1.62-.25-.18-.36-.36-.36-.54,0-.25.25-.36.72-.29,1.22.18,2.52.29,3.92.32,3.56.07,7.42-.04,10.98-.29.36-.04,1.26-.4,1.66-.4.68,0,1.48.11,2.41.36.32.07.47.22.47.47,0,.32-.76.83-.79,1.08-.32,1.33-.68,2.41-1.12,3.49.9.22,1.4.54,1.4,1.01,0,.5-.36.72-1.04.76-6.59.11-11.16.18-13.21.29-.04.18-.07.43-.07.72v2.48c0,.5.22.76.68.76,2.3.04,4.68.04,6.62-.07,1.69-.07,2.88-.29,3.64-.61.54-.32.97-.47,1.3-.47,2.2,0,3.89.18,3.89,1.4,0,.86-.54,1.26-1.55,1.26ZM172.5,4.32v7.56c0,1.66-.11,2.95-.25,3.96-.29,2.16-.86,3.2-1.73,3.2-.61,0-.94-.9-.94-2.7V3.42c-.61-.9-1.73-1.58-3.31-2.05-.36-.11-.54-.29-.54-.58,0-.36.5-.54,1.51-.54,1.3,0,2.81.29,4.54.9.58.18.9.54.9,1.01,0,.4-.18,1.12-.18,2.16Z"/>
    </g>
  </g>
</svg>