<?xml version="1.0" encoding="UTF-8"?>
<svg id="_레이어_2" data-name="레이어 2" xmlns="http://www.w3.org/2000/svg" viewBox="0 0 177.65 35.09">
  <defs>
    <style>
      .cls-1 {
        fill: #1d287b;
        stroke: #1d287b;
        stroke-miterlimit: 10;
        stroke-width: .5px;
      }
    </style>
  </defs>
  <g id="_레이어_1-2" data-name="레이어 1">
    <g>
      <path class="cls-1" d="M10.29,8.06c4.03.61,6.77,3.64,6.77,7.34,0,.9-.18,1.73-.47,2.52.76.07,1.58.11,2.45.07,1.66,0,3.13-.11,4.39-.22v-6.66c-.43,0-.79.04-1.12.04-1.22.11-2.05.29-2.52.54-.25.14-.47.22-.61.22-.68,0-1.84-.5-3.35-1.55-.25-.18-.4-.36-.4-.54,0-.25.25-.32.76-.29.97.11,2.02.18,3.17.14,1.37,0,2.74-.07,4.07-.22V3.74c-.61-.86-1.69-1.55-3.24-2.05-.4-.11-.58-.29-.58-.54,0-.36.5-.54,1.48-.54,1.33,0,2.84.29,4.57.86.58.18.86.54.86,1.04,0,.43-.18,1.58-.18,2.16v19.58c0,2.84-.11,5.08-.32,6.73-.32,2.59-.9,3.85-1.66,3.85-.65,0-.94-1.33-.94-4.07v-11.41c-1.15.07-2.09.18-2.77.29-1.04.18-1.51.58-1.84.58s-.9-.22-1.76-.61c-.4-.18-.72-.36-1.01-.54-1.4,2.3-4.07,3.82-7.34,3.82C3.81,22.89.25,19.58.25,15.4c0-3.92,3.17-7.13,7.67-7.45.22-.22.4-.43.4-.65,0-.29-.14-.5-.58-.76-.25-.14-.4-.25-.4-.47,0-.25.18-.47.83-.47.61,0,1.62.22,2.23.58.32.18.5.43.5.65,0,.32-.25.76-.61,1.22ZM8.71,20.41c3.1,0,5.47-2.16,5.47-5.11s-2.38-5.08-5.47-5.08-5.44,2.12-5.44,5.08,2.34,5.11,5.44,5.11Z"/>
      <path class="cls-1" d="M63.07,20.05c-1.51-.11-2.95-.18-4.39-.18-6.84,0-13.1.14-17.35.47-.72.04-1.26.11-1.69.14-1.3.25-2.09.76-2.52.76-.18,0-.36-.04-.61-.11-1.22-.4-2.52-1.01-3.78-1.87-.36-.25-.54-.47-.54-.72,0-.29.25-.4.83-.29,1.58.25,3.35.4,5.29.4,5.08,0,11.19-.11,16.85-.36,1.87-.11,3.06-.29,3.6-.58.58-.29,1.01-.43,1.4-.43,1.33,0,2.48.14,3.46.43.72.25,1.12.65,1.12,1.19,0,.86-.58,1.26-1.66,1.15ZM57.63,15.19c-5.51.04-11.01.14-15.3.29-2.09.04-2.92-.61-2.92-2.52v-2.77c-.5-.5-1.3-.86-2.34-1.12-.4-.07-.58-.25-.58-.54,0-.32.32-.47.94-.47,1.33-.04,2.66.04,3.92.25.18,0,.83.32,1.69.32,3.71-.04,7.56-.18,10.76-.36.18,0,.32-.07.43-.25.11-.94.14-2.27.11-3.67-3.1.04-6.66.14-9.5.32-2.2.18-2.84.72-3.2.72-.25,0-.5-.04-.76-.14-1.37-.54-2.45-1.08-3.24-1.62-.25-.18-.36-.32-.36-.5,0-.36.25-.47.76-.4,1.19.22,2.48.32,3.92.36,6.05.11,10.55,0,12.31-.4.14-.04.94-.32,1.22-.32.54,0,1.26.11,2.2.32.47.11.68.32.68.58,0,.22-.25.54-.72.97-.22,1.37-.68,2.77-1.08,3.82.86.22,1.26.58,1.26,1.01,0,.47-.32.72-1.04.72-5.69.11-10.69.22-14.18.32-.04.22-.04.43-.04.61v2.38c0,.54.22.79.65.79,2.66.04,5.29-.04,7.13-.22,1.66-.14,2.77-.36,3.46-.65.54-.25,1.01-.4,1.37-.4,2.48,0,4,.04,4,1.33,0,.79-.54,1.19-1.55,1.22ZM57.38,25.23c-.32,2.12-.68,3.92-1.15,5.76.94.25,1.4.65,1.4,1.15,0,.58-.61.83-1.76.83-3.71-.04-8.06,0-12.45.14-.29,1.12-.79,1.73-1.51,1.73-.47,0-.79-.68-.94-1.94l-.72-7.49c-.4-.47-1.15-.86-2.3-1.19-.4-.11-.61-.29-.61-.5,0-.32.61-.61,1.08-.61,1.19,0,2.27.07,3.2.22.83.14,1.37.29,1.62.4,3.49.04,7.27-.07,10.55-.32.29-.04,1.12-.29,1.44-.29.9,0,1.69.11,2.41.29.36.14.54.32.54.58,0,.4-.76.83-.79,1.26ZM43.34,25.34c-.04.22-.04.47,0,.79l.14,5.29c4.18.04,7.74-.04,10.01-.22.25,0,.43-.14.61-.4l.14-5.76c-3.89,0-7.77.07-10.91.29Z"/>
      <path class="cls-1" d="M93.99,4.68v19.58c0,2.84-.11,5.08-.32,6.73-.32,2.59-.86,3.85-1.66,3.85-.61,0-.9-1.33-.9-4.07v-7.42c-1.98.5-5.15,1.08-8.64,1.69-1.62.29-4.46.61-8.39,1.04-.76.07-1.4.25-1.94.54-.25.14-.58.18-.86.18-.83,0-2.34-.72-4.46-2.12-.32-.22-.5-.43-.5-.68,0-.32.29-.43.83-.4,1.8.25,3.64.32,5.47.22,3.64-.11,6.77-.36,9.36-.65,3.64-.4,7.02-.86,9.14-1.26V3.74c-.65-.86-1.69-1.55-3.28-2.05-.36-.11-.54-.29-.54-.54,0-.36.47-.54,1.44-.54,1.33,0,2.84.29,4.57.86.58.18.86.54.86,1.04,0,.43-.18,1.58-.18,2.16ZM77.11,5.36c.29-.22.43-.4.43-.61,0-.25-.14-.47-.58-.72-.25-.18-.4-.32-.4-.47,0-.29.18-.5.76-.5.79,0,1.58.18,2.3.61.25.14.47.43.47.68,0,.18-.22.54-.61,1.12,3.89.58,6.37,3.28,6.37,6.66,0,3.82-3.13,6.73-7.95,6.73s-8.06-2.92-8.06-6.73c0-3.6,2.92-6.48,7.27-6.77ZM77.9,16.63c3.06,0,5.15-1.98,5.15-4.46s-2.09-4.46-5.15-4.46-5.11,2.05-5.11,4.46,2.05,4.46,5.11,4.46Z"/>
      <path class="cls-1" d="M126.36,10.98c.22-.18.32-.36.32-.54s-.14-.36-.5-.58c-.22-.14-.32-.29-.32-.4,0-.29.29-.43.86-.43.36,0,.86.14,1.62.47.32.14.47.36.47.61,0,.18-.14.5-.4.9,4.07.43,6.66,2.95,6.66,6.05s-2.48,5.51-6.44,5.98v4.32c1.76-.04,3.56-.11,5.36-.22,1.87-.07,3.06-.25,3.6-.5.58-.32,1.01-.47,1.4-.47,1.33,0,2.48.14,3.46.43.72.22,1.12.61,1.12,1.15,0,.9-.58,1.3-1.66,1.19-1.51-.11-2.95-.18-4.39-.18-6.48,0-12.74.14-17.35.47-.72.04-1.26.11-1.69.18-1.3.18-2.09.76-2.52.76-.18,0-.36-.04-.61-.14-1.26-.36-2.52-.97-3.78-1.84-.36-.25-.54-.47-.54-.72,0-.29.25-.4.83-.29,1.51.25,3.28.36,5.29.4,2.48,0,5.47-.04,8.67-.11v-4.43c-4.03-.43-6.62-2.84-6.62-5.98s2.84-5.8,7.16-6.08ZM138.88,8.64c-1.19-.07-2.52-.11-4.03-.07-5.4.07-10.8.25-13.68.5-.9.07-1.66.25-2.23.54-.29.14-.5.22-.68.22-.25,0-.5-.07-.83-.18-1.15-.47-2.16-1.01-3.06-1.62-.29-.18-.43-.43-.43-.65,0-.25.25-.36.76-.29,1.37.18,2.77.29,4.14.29,4.03.04,9.32-.04,13.32-.29,1.15-.07,1.98-.25,2.63-.5.72-.32,1.26-.47,1.66-.47,2.05,0,3.96.32,3.96,1.44,0,.79-.5,1.12-1.51,1.08ZM130.46,4.71c-2.09.04-4,.11-5,.22-.36.04-.61.07-.72.07-.58,0-1.04-.14-1.44-.4-1.66-1.12-2.48-1.87-2.48-2.34,0-.22.18-.36.54-.36.07,0,.29.04.65.11,2.3.4,5.33.61,8.46.61.9,0,1.33.32,1.33.97,0,.76-.43,1.12-1.33,1.12ZM127.18,20.88c3.2,0,5.11-1.87,5.11-3.96s-1.91-4-5.11-4-5.11,1.91-5.11,4,1.91,3.96,5.11,3.96Z"/>
      <path class="cls-1" d="M175.74,20.16c-1.51-.11-2.95-.18-4.39-.18-6.48,0-12.38.14-16.99.47-.79.07-1.69.11-2.05.14-1.3.18-2.09.72-2.52.72-.18,0-.36-.04-.61-.11-1.33-.4-2.59-.97-3.78-1.8-.36-.25-.54-.47-.54-.72,0-.29.25-.4.83-.29,1.51.25,3.28.36,5.29.4,4.54,0,10.65-.14,16.85-.43,1.91-.07,3.13-.29,3.64-.54.54-.25.97-.4,1.37-.4,1.33,0,2.48.14,3.46.4.72.22,1.12.61,1.12,1.15,0,.86-.58,1.3-1.66,1.19ZM160.23,7.41c.14-.14.22-.36.22-.54,0-.22-.14-.4-.32-.54-1.94.04-3.56.14-4.5.22-.86.07-1.55.25-2.12.58-.25.14-.5.22-.68.22s-.43-.04-.72-.14c-1.08-.43-2.12-.97-3.06-1.62-.25-.18-.4-.43-.4-.65,0-.25.22-.32.68-.29,1.66.18,3.38.29,5.18.29,6.88,0,12.24-.25,13.21-.72.61-.29,1.12-.43,1.58-.43,1.37,0,2.38.11,3.02.36.54.18.83.54.83,1.01,0,.72-.4,1.04-1.15,1.04-1.51-.04-2.99-.04-4.46,0-1.84.04-3.64.04-5.29.07.14.18.22.32.22.47,0,.22-.07.47-.25.72,3.85.32,6.23,2.34,6.23,4.72,0,2.77-2.81,4.9-7.42,4.9s-7.45-2.2-7.45-4.93c0-2.45,2.52-4.5,6.66-4.72ZM169.7,24.91l-.07,4.64c-.04.97-.11,1.84-.29,2.52-.29,1.37-.83,2.02-1.58,2.02-.58,0-.9-.54-.97-1.62l-10.8.14c-.25,1.22-.83,1.8-1.73,1.8-.58,0-.86-.79-.9-2.45l-.07-6.8c-.32-.58-1.19-1.04-2.63-1.44-.36-.11-.54-.25-.54-.5,0-.29.72-.58,1.19-.58,1.3,0,2.63.11,3.96.32.65.11.97.47.97,1.12,0,.25-.07.83-.07,1.08l-.04.76,10.62-.14v-1.76c-.47-.65-1.33-1.15-2.56-1.62-.36-.11-.5-.32-.5-.58,0-.32.43-.5,1.22-.5.4,0,1.15.11,2.16.29,1.08.18,1.76.36,2.16.5.43.14.65.4.65.79,0,.43-.18,1.58-.18,2.02ZM164.37,3.02c-1.62,0-3.46.07-4.75.18-.29.04-.58.04-.86.04-.54,0-1.01-.11-1.4-.36-1.19-.72-1.94-1.37-2.27-1.84-.11-.18-.18-.32-.18-.47,0-.22.18-.32.58-.32.18,0,.4.04.65.07,2.12.4,5.08.58,8.24.58.9,0,1.33.36,1.33,1.08s-.43,1.04-1.33,1.04ZM166.75,27.43l-10.62.14-.04,3.38,10.65-.14v-3.38ZM161.02,14.94c2.92,0,4.61-1.26,4.61-2.84,0-1.48-1.69-2.84-4.61-2.84s-4.54,1.37-4.54,2.84c0,1.55,1.58,2.84,4.54,2.84Z"/>
    </g>
  </g>
</svg>