<?xml version="1.0" encoding="UTF-8"?>
<svg id="_레이어_2" data-name="레이어 2" xmlns="http://www.w3.org/2000/svg" viewBox="0 0 34.44 34.44">
  <defs>
    <style>
      .cls-1 {
        fill: #251714;
      }

      .cls-2 {
        fill: #1d2977;
      }

      .cls-3 {
        fill: #fff;
      }
    </style>
  </defs>
  <g id="_레이어_1-2" data-name="레이어 1">
    <g>
      <g>
        <circle class="cls-2" cx="17.22" cy="17.22" r="16.08"/>
        <path class="cls-1" d="M17.22,34.44C7.73,34.44,0,26.72,0,17.22S7.73,0,17.22,0s17.22,7.73,17.22,17.22-7.73,17.22-17.22,17.22ZM17.22,2.29c-8.23,0-14.93,6.7-14.93,14.93s6.7,14.93,14.93,14.93,14.93-6.7,14.93-14.93S25.45,2.29,17.22,2.29Z"/>
      </g>
      <g id="ZhpIZh.tif">
        <g>
          <path class="cls-3" d="M17.01,2.5c-7.97.03-14.52,6.67-14.49,14.68.03,8.42,6.49,14.8,14.93,14.76,7.89-.04,14.56-6.84,14.47-14.76-.09-8.27-6.63-14.71-14.91-14.68ZM5.77,12.44c1.64-4.35,6.45-7.6,11.35-7.68,4.72-.08,9.81,3.15,11.39,7.56.56,1.56-.28,3.31-.79,4.89-1.4,4.33-5.82,7.49-10.35,7.47-5.35-.02-10.17-4.25-10.9-9.54-.08-.58.17-1.32-.69-1.66-.61-.24-.14-.72-.01-1.05ZM17.29,29.64c-6.49.05-11.42-4.97-12.01-10.02,2.84,4.53,6.51,7.08,11.53,7.27,4.96.19,8.85-1.94,11.95-6.19-.57,4.11-5.26,8.89-11.48,8.93Z"/>
          <path class="cls-3" d="M20.59,11.07c-1.08.02-1.8-.53-1.86-1.7-.06-1.17.58-1.72,1.45-1.86,1.37.01,2.05.6,2.11,1.71.06,1.12-.58,1.82-1.7,1.85Z"/>
          <path class="cls-3" d="M15.69,9.32c-.05,1.07-.62,1.75-1.75,1.76-1.1,0-1.8-.64-1.82-1.75-.01-1.09.56-1.79,1.73-1.79,1.15,0,1.72.63,1.83,1.79Z"/>
        </g>
      </g>
    </g>
  </g>
</svg>