<?xml version="1.0" encoding="UTF-8"?>
<svg id="_레이어_2" data-name="레이어 2" xmlns="http://www.w3.org/2000/svg" viewBox="0 0 34.29 34.29">
  <defs>
    <style>
      .cls-1 {
        fill: #fefefe;
      }

      .cls-2 {
        fill: #fff;
      }

      .cls-3 {
        fill: #2a1412;
      }

      .cls-4 {
        fill: #1a2a7f;
      }
    </style>
  </defs>
  <g id="_레이어_1-2" data-name="레이어 1">
    <g>
      <g>
        <circle class="cls-4" cx="17.14" cy="17.14" r="16"/>
        <path class="cls-3" d="M17.14,34.29C7.69,34.29,0,26.6,0,17.14S7.69,0,17.14,0s17.14,7.69,17.14,17.14-7.69,17.14-17.14,17.14ZM17.14,2.28c-8.2,0-14.86,6.67-14.86,14.86s6.67,14.86,14.86,14.86,14.86-6.67,14.86-14.86S25.34,2.28,17.14,2.28Z"/>
      </g>
      <path class="cls-2" d="M16.96,2.54c-7.93.01-14.44,6.61-14.41,14.59.03,8.29,6.4,14.62,14.71,14.63,7.88,0,14.5-6.66,14.48-14.58-.02-8.19-6.54-14.65-14.77-14.64ZM17.16,29.51c-6.66.05-12.39-5.66-12.39-12.37,0-6.69,5.73-12.42,12.39-12.36,6.68.05,12.21,5.59,12.27,12.27.05,6.75-5.51,12.4-12.27,12.45Z"/>
      <g id="v6cEQ2.tif">
        <g>
          <path class="cls-1" d="M25.85,18.04c.03,2.82-1,5.1-3.21,6.77-2.74,2.07-5.74,2.72-8.99,1.21-3.35-1.56-5.18-4.14-5.22-7.95.16-.03.24-.06.31-.06,1.36-.06,1.37-.06,1.53,1.29.49,4.12,5.97,7.59,10.58,4.62,2.13-1.37,3.2-3.31,3.27-5.84.57-.13,1.1-.08,1.72-.04Z"/>
          <rect class="cls-1" x="13.29" y="8.6" width="1.81" height="6.27"/>
          <rect class="cls-1" x="19.12" y="8.56" width="1.82" height="6.28"/>
        </g>
      </g>
    </g>
  </g>
</svg>