<?xml version="1.0" encoding="UTF-8"?>
<svg id="_레이어_2" data-name="레이어 2" xmlns="http://www.w3.org/2000/svg" viewBox="0 0 34.29 34.29">
  <defs>
    <style>
      .cls-1 {
        fill: #fefefe;
      }

      .cls-2 {
        fill: #fff;
      }

      .cls-3 {
        fill: #2a1412;
      }

      .cls-4 {
        fill: #1a2a7f;
      }
    </style>
  </defs>
  <g id="_레이어_1-2" data-name="레이어 1">
    <g>
      <g>
        <circle class="cls-4" cx="17.14" cy="17.14" r="16"/>
        <path class="cls-3" d="M17.14,34.29C7.69,34.29,0,26.6,0,17.14S7.69,0,17.14,0s17.14,7.69,17.14,17.14-7.69,17.14-17.14,17.14ZM17.14,2.28c-8.2,0-14.86,6.67-14.86,14.86s6.67,14.86,14.86,14.86,14.86-6.67,14.86-14.86S25.34,2.28,17.14,2.28Z"/>
      </g>
      <path class="cls-2" d="M16.96,2.54c-7.93.01-14.44,6.61-14.41,14.59.03,8.29,6.4,14.62,14.71,14.63,7.88,0,14.5-6.66,14.48-14.58-.02-8.19-6.54-14.65-14.77-14.64ZM17.16,29.51c-6.66.05-12.39-5.66-12.39-12.37,0-6.69,5.73-12.42,12.39-12.36,6.68.05,12.21,5.59,12.27,12.27.05,6.75-5.51,12.4-12.27,12.45Z"/>
      <g id="_8a7pvY.tif" data-name="8a7pvY.tif">
        <path class="cls-1" d="M17.16,2.52c-8.16-.04-14.57,6.37-14.69,14.51-.12,8.03,6.52,14.69,14.58,14.74,8,.04,14.67-6.51,14.69-14.54.02-7.99-6.21-14.68-14.57-14.71ZM16.97,27.42c-2.22-5.36-4.35-10.51-6.51-15.74h13.5c-2.32,5.22-4.61,10.37-6.99,15.74ZM17.74,29.56c-.13-.37.13-.63.27-.92,2.52-5.53,5.06-11.06,7.6-16.59.29-.63.41-1.26.28-2.04H8.06c-.17.65-.08,1.25.18,1.86,2.5,5.76,4.98,11.53,7.46,17.29.04.1.08.2.12.31-3.58.15-9.24-3.09-10.81-8.96-1.78-6.66,1.91-12.69,6.86-14.75.34,1.49,1.1,2.11,2.22,1.82,1.16-.3,1.5-1.24.99-2.85,1.25-.22,2.48-.14,3.8-.07-.28.79-.5,1.5-.06,2.22.24.39.59.59,1,.7,1.11.3,1.76-.25,2.29-1.9,4.43,1.61,8.73,7.2,7.31,14.06-1.37,6.61-7.5,10.05-11.68,9.81Z"/>
      </g>
    </g>
  </g>
</svg>