<?xml version="1.0" encoding="UTF-8"?>
<svg id="_레이어_2" data-name="레이어 2" xmlns="http://www.w3.org/2000/svg" viewBox="0 0 34.29 34.29">
  <defs>
    <style>
      .cls-1 {
        fill: #fff;
      }

      .cls-2 {
        fill: #2a1412;
      }

      .cls-3 {
        fill: #1a2a7f;
      }
    </style>
  </defs>
  <g id="_레이어_1-2" data-name="레이어 1">
    <g>
      <g>
        <circle class="cls-3" cx="17.14" cy="17.14" r="16"/>
        <path class="cls-2" d="M17.14,34.29C7.69,34.29,0,26.6,0,17.14S7.69,0,17.14,0s17.14,7.69,17.14,17.14-7.69,17.14-17.14,17.14ZM17.14,2.28c-8.2,0-14.86,6.67-14.86,14.86s6.67,14.86,14.86,14.86,14.86-6.67,14.86-14.86S25.34,2.28,17.14,2.28Z"/>
      </g>
      <g id="_9FNRj1.tif" data-name="9FNRj1.tif">
        <g>
          <path class="cls-1" d="M16.96,2.54c-7.93.01-14.44,6.61-14.41,14.59.03,8.29,6.4,14.62,14.71,14.63,7.88,0,14.5-6.66,14.48-14.58-.02-8.19-6.54-14.65-14.77-14.64ZM17.16,29.51c-6.66.05-12.39-5.66-12.39-12.37,0-6.69,5.73-12.42,12.39-12.36,6.68.05,12.21,5.59,12.27,12.27.05,6.75-5.51,12.4-12.27,12.45Z"/>
          <path class="cls-1" d="M24.07,14.83c-2.34,3.65-4.63,7.22-7.12,11.1-2.4-3.74-4.67-7.3-7.05-11,1.31-.47,2.17-.46,2.9.77,1.28,2.18,2.69,4.29,4.16,6.6,1.41-2.22,2.67-4.22,3.94-6.21q.99-1.56,3.17-1.26Z"/>
          <path class="cls-1" d="M22.47,9.98c0,.28-.01.56-.02.84-.71.43-1.39,1.15-2.14,1.21-1.07.1-1.89-.74-1.59-1.82.18-.65,1.09-1.51,1.68-1.52.69,0,1.38.82,2.07,1.28Z"/>
          <path class="cls-1" d="M15.88,10.03c-.01.26-.03.53-.04.79-.65.43-1.27,1.15-1.96,1.23-1.17.13-2-.73-1.72-1.87.16-.63,1.11-1.47,1.71-1.47.67,0,1.34.84,2.01,1.32Z"/>
        </g>
      </g>
    </g>
  </g>
</svg>