<?xml version="1.0" encoding="UTF-8"?>
<svg id="_레이어_2" data-name="레이어 2" xmlns="http://www.w3.org/2000/svg" viewBox="0 0 34.29 34.29">
  <defs>
    <style>
      .cls-1 {
        fill: #fefefe;
      }

      .cls-2 {
        fill: #fff;
      }

      .cls-3 {
        fill: #2a1412;
      }

      .cls-4 {
        fill: #1a2a7f;
      }

      .cls-5 {
        fill: #060303;
      }
    </style>
  </defs>
  <g id="_레이어_1-2" data-name="레이어 1">
    <g>
      <g>
        <circle class="cls-4" cx="17.14" cy="17.14" r="16"/>
        <path class="cls-3" d="M17.14,34.29C7.69,34.29,0,26.6,0,17.14S7.69,0,17.14,0s17.14,7.69,17.14,17.14-7.69,17.14-17.14,17.14ZM17.14,2.28c-8.2,0-14.86,6.67-14.86,14.86s6.67,14.86,14.86,14.86,14.86-6.67,14.86-14.86S25.34,2.28,17.14,2.28Z"/>
      </g>
      <path class="cls-2" d="M16.96,2.54c-7.93.01-14.44,6.61-14.41,14.59.03,8.29,6.4,14.62,14.71,14.63,7.88,0,14.5-6.66,14.48-14.58-.02-8.19-6.54-14.65-14.77-14.64ZM17.16,29.51c-6.66.05-12.39-5.66-12.39-12.37,0-6.69,5.73-12.42,12.39-12.36,6.68.05,12.21,5.59,12.27,12.27.05,6.75-5.51,12.4-12.27,12.45Z"/>
      <g id="_2kdUVV.tif" data-name="2kdUVV.tif">
        <g>
          <path class="cls-5" d="M23.06,12.68c-.01.15-.03.29-.05.42.03-.13.05-.27.06-.42v-.15s0,.1,0,.15ZM10.05,17.17c-.22,0-.48.08-.77.19.29-.1.54-.19.77-.19Z"/>
          <path class="cls-1" d="M25.08,17.08c-.37,4.32-3.52,7.2-7.95,7.27-4.38.08-7.57-2.55-8.16-6.87.11-.04.21-.09.31-.12.29-.11.55-.19.77-.19.4,0,.71.24.96.98.81,2.39,2.64,3.57,5.3,3.71.18,0,.36.02.54.02.61,0,1.18-.05,1.72-.14.53-.09,1.02-.23,1.47-.41.28-.11.55-.24.8-.39,1.08-.65,1.86-1.63,2.25-2.95.41-1.4,1.04-1.22,1.99-.91Z"/>
          <path class="cls-1" d="M15.34,12.86c-.19,1.13-.87,1.82-2.2,1.74-1.35-.08-1.99-.95-1.91-2.16.09-1.23.93-2.04,2.2-1.93,1.23.1,1.94.9,1.91,2.35Z"/>
          <path class="cls-1" d="M23.07,12.53v.15c0,.15-.03.29-.06.42-.01.06-.03.13-.05.19-.06.19-.14.36-.24.51-.04.05-.08.1-.12.14-.41.46-1.1.69-2.16.64-.83-.09-1.5-.81-1.46-2.11.06-1.32.91-2.02,2.13-1.97.19,0,.37.04.54.09.09.02.18.05.27.09.18.07.35.17.49.3.04.03.08.07.12.11.09.09.16.18.23.29.21.32.31.71.31,1.15Z"/>
        </g>
      </g>
    </g>
  </g>
</svg>